<svg version="1.1" id="Layer_1" xmlns="http://www.w3.org/2000/svg" xmlns:xlink="http://www.w3.org/1999/xlink" x="0px" y="0px"
	 width="100%" viewBox="0 0 1939 680" enable-background="new 0 0 1939 680" xml:space="preserve">
<path fill="none" opacity="1.000000" stroke="none" 
	d="
M1174.000000,681.000000 
	C783.030396,681.000000 392.060822,681.000000 1.045620,681.000000 
	C1.045620,454.381378 1.045620,227.762756 1.045620,1.072067 
	C647.235046,1.072067 1293.470093,1.072067 1939.852539,1.072067 
	C1939.852539,227.550629 1939.852539,454.101410 1939.852539,681.000000 
	C1690.302490,681.000000 1440.604858,681.000000 1190.549561,680.614380 
	C1200.567749,679.262756 1206.419800,672.991882 1210.131226,663.777649 
	C1222.674683,632.635620 1235.377808,601.557739 1248.000122,570.447388 
	C1248.332886,569.627014 1248.438599,568.714478 1248.719360,567.560547 
	C1244.284424,567.560547 1240.264282,567.851440 1236.308105,567.473389 
	C1232.821655,567.140076 1231.347046,568.507935 1230.214722,571.634399 
	C1223.877197,589.132629 1217.353394,606.563416 1210.876465,624.010986 
	C1210.242188,625.719360 1209.493530,627.385193 1208.458252,629.893860 
	C1207.622314,627.812012 1207.172241,626.758118 1206.772461,625.685425 
	C1200.040039,607.623901 1193.347900,589.547302 1186.523682,571.520691 
	C1185.959839,570.031311 1184.590942,567.834534 1183.457520,567.746216 
	C1178.248291,567.340759 1172.989746,567.567627 1167.301392,567.567627 
	C1168.003540,569.426514 1168.381470,570.500305 1168.811035,571.552856 
	C1177.165283,592.019348 1184.868042,612.788025 1194.151855,632.824036 
	C1199.072510,643.443481 1199.517334,652.682129 1193.983032,662.761475 
	C1192.556030,665.360291 1191.306519,666.416687 1188.417236,666.290161 
	C1183.484131,666.074036 1178.534790,666.230591 1172.820923,666.230591 
	C1173.250244,671.608276 1173.625122,676.304138 1174.000000,681.000000 
M88.556435,591.943359 
	C89.686432,592.929138 90.766029,593.980652 91.953651,594.891235 
	C169.738831,654.532776 254.349823,666.047668 343.824493,626.555847 
	C437.496918,585.210999 491.920410,485.572632 478.703094,383.922394 
	C471.027771,324.893677 444.393616,275.362823 399.156250,236.586197 
	C343.704132,189.053726 278.982300,170.625259 207.089783,181.430313 
	C140.091705,191.499741 86.415558,225.219406 47.746960,281.084473 
	C10.696648,334.611511 -1.523360,394.118835 10.487389,457.980316 
	C20.528179,511.367493 47.033260,555.772705 88.556435,591.943359 
M1817.437012,268.022003 
	C1801.263306,255.151260 1781.942261,253.675552 1761.997437,251.957489 
	C1761.997437,258.958344 1762.060059,265.089142 1761.983521,271.218170 
	C1761.853149,281.652649 1755.509766,288.057770 1745.143799,288.106354 
	C1729.483521,288.179749 1713.818970,287.923309 1698.163574,288.213318 
	C1689.182373,288.379639 1680.676392,288.194855 1675.365845,278.394531 
	C1671.698853,285.533813 1668.359863,292.223816 1666.040161,299.250336 
	C1661.048828,314.369385 1659.450439,330.110931 1658.671875,345.937408 
	C1657.073242,378.439850 1657.038086,410.830475 1665.041382,442.715485 
	C1671.886963,469.988007 1688.064087,488.084991 1715.961426,494.449951 
	C1739.192017,499.750244 1762.583862,499.847168 1785.795898,494.495605 
	C1801.588379,490.854645 1815.489502,483.623138 1825.091797,469.866699 
	C1832.572144,459.150269 1836.698120,447.001526 1839.023071,434.341675 
	C1846.462769,393.830505 1846.282227,353.186981 1839.472046,312.644165 
	C1836.676880,296.003296 1830.601685,280.548157 1817.437012,268.022003 
M849.792114,275.537659 
	C849.610901,286.392090 854.025635,295.929382 858.474792,305.426575 
	C860.125427,308.949951 862.796570,310.137329 866.680237,308.434723 
	C871.709229,306.229980 876.894104,304.383453 881.989380,302.326813 
	C895.082214,297.041992 908.680786,295.382874 922.667725,296.732300 
	C933.206970,297.749084 939.362427,302.079041 941.381104,311.761536 
	C943.571594,322.267792 944.408508,333.056213 945.831909,343.693512 
	C943.582825,344.383118 942.496521,344.761749 941.386658,345.049713 
	C921.238647,350.277252 901.076233,355.449768 880.940674,360.724670 
	C858.501831,366.602966 843.084290,384.064575 841.872498,407.025146 
	C841.157104,420.579834 842.154968,434.315552 843.494690,447.859833 
	C844.591980,458.952606 847.426514,469.866089 855.294800,478.559052 
	C868.683350,493.351105 902.391479,501.370392 922.266174,493.116821 
	C933.164185,488.591095 942.949524,481.386169 953.570984,475.194397 
	C955.212463,478.310150 957.913757,482.527283 959.698486,487.102020 
	C961.237610,491.047333 963.963928,493.522186 967.659973,493.726440 
	C979.067261,494.356781 990.509949,494.592834 1001.935791,494.516174 
	C1006.243835,494.487274 1008.042297,491.437927 1008.063843,487.009949 
	C1008.271118,444.522217 1008.931030,402.033539 1008.741455,359.548340 
	C1008.644775,337.906067 1006.868591,316.310028 1000.080078,295.468231 
	C992.940002,273.546997 978.997498,258.902313 956.093018,253.456360 
	C939.747498,249.569901 923.172852,248.400299 906.472168,249.105667 
	C889.340759,249.829224 872.796997,253.045563 857.531250,261.509705 
	C852.137512,264.500275 849.053650,268.269928 849.792114,275.537659 
M1181.254150,468.285217 
	C1185.298218,476.489075 1189.406738,484.662079 1193.359375,492.909698 
	C1195.365479,497.095856 1198.364990,500.482422 1202.937256,500.836151 
	C1213.318970,501.639282 1223.788208,502.460114 1234.156616,501.949982 
	C1243.631226,501.483887 1243.622314,500.671478 1242.217407,491.038757 
	C1241.929199,489.062775 1241.706787,487.077209 1241.421509,485.100708 
	C1237.974121,461.215210 1234.714111,437.400421 1235.183105,413.080231 
	C1235.912231,375.267944 1235.375977,337.431244 1235.375977,299.604889 
	C1235.375977,297.813751 1235.375977,296.022614 1235.375977,293.704193 
	C1237.420166,293.704193 1239.041992,293.704193 1240.663818,293.704193 
	C1253.328125,293.704193 1265.996948,293.511536 1278.654541,293.802490 
	C1283.471802,293.913208 1286.387451,291.707062 1286.709351,287.550079 
	C1287.320068,279.662079 1287.590942,271.649261 1286.880981,263.789642 
	C1286.340210,257.803833 1283.758423,256.427612 1277.676392,256.418274 
	C1265.012085,256.398834 1252.346191,256.303406 1239.684692,256.491119 
	C1236.672852,256.535736 1235.575439,255.469910 1235.161011,252.698410 
	C1234.201904,246.283218 1233.266602,239.851288 1231.929688,233.508743 
	C1229.771729,223.270447 1227.481079,213.050507 1224.817993,202.935638 
	C1224.218384,200.658386 1222.234863,197.672165 1220.236084,197.023911 
	C1211.924561,194.328384 1200.216553,200.052979 1196.268066,208.043259 
	C1188.900269,222.953430 1181.436157,237.816711 1174.200684,252.790649 
	C1172.895020,255.492905 1171.261841,256.728699 1168.341431,257.259308 
	C1158.347534,259.075043 1148.450073,261.449585 1138.429077,263.077606 
	C1132.674561,264.012573 1129.902222,267.247253 1129.143555,272.509430 
	C1128.504517,276.941711 1128.134277,281.446106 1128.090942,285.922913 
	C1128.028320,292.384247 1129.259644,293.582947 1135.621582,293.669983 
	C1143.951904,293.783936 1152.284790,293.702209 1160.616577,293.704041 
	C1164.395020,293.704895 1168.173462,293.704193 1172.290894,293.704193 
	C1172.290894,296.030182 1172.290894,297.827271 1172.290894,299.624359 
	C1172.290894,343.282990 1172.687256,386.947327 1172.053955,430.596771 
	C1171.859009,444.032532 1173.783569,456.270752 1181.254150,468.285217 
M716.239197,273.967224 
	C718.833679,268.732513 717.000549,264.956604 712.541199,261.740204 
	C695.654663,249.560394 677.545959,243.420700 656.431030,256.111664 
	C646.335083,262.179749 636.287537,268.328125 625.872131,274.650085 
	C623.143616,269.517944 619.818726,264.462189 617.698730,258.943542 
	C615.522644,253.279297 611.395691,250.512695 606.107666,250.146744 
	C597.351135,249.540771 588.497131,249.451797 579.741333,250.021851 
	C573.231262,250.445724 571.238586,253.443115 571.237976,259.956146 
	C571.231262,334.581116 571.271912,409.206146 571.139099,483.830872 
	C571.131104,488.306305 572.531250,490.751556 576.843018,491.615601 
	C591.589172,494.570679 606.450562,496.507172 621.494873,495.135559 
	C631.041870,494.265167 631.724670,493.129822 631.724976,483.580109 
	C631.726685,429.443695 631.771606,375.307159 631.629333,321.171112 
	C631.619202,317.306030 632.662048,315.038910 636.150391,313.378387 
	C640.953247,311.092194 645.543884,308.359741 650.221741,305.811676 
	C659.374695,300.825897 668.550964,300.525421 677.910217,305.367889 
	C681.596436,307.275146 685.433472,308.961853 689.342773,310.352905 
	C699.501709,313.967743 704.857849,311.696411 708.355164,301.555603 
	C711.380920,292.781738 713.536987,283.707916 716.239197,273.967224 
M1440.001099,316.500000 
	C1440.001221,367.999176 1439.988525,419.498352 1440.009399,470.997528 
	C1440.015747,486.381836 1449.530273,495.782990 1464.992676,495.794708 
	C1473.325928,495.801025 1481.659058,495.810608 1489.992310,495.792114 
	C1504.196533,495.760590 1513.983521,486.142090 1513.988525,472.058563 
	C1514.013550,402.226379 1514.014526,332.394165 1513.987427,262.561981 
	C1513.982056,248.730896 1504.256836,239.127914 1490.304688,239.052963 
	C1481.638428,239.006409 1472.971558,239.024933 1464.305054,239.048141 
	C1449.518677,239.087738 1440.036987,248.610580 1440.008667,263.500854 
	C1439.975830,280.833832 1440.001099,298.166962 1440.001099,316.500000 
M1798.318604,112.818573 
	C1819.262695,91.869888 1840.206909,70.921211 1861.622925,49.500622 
	C1864.475830,60.769253 1871.780884,63.763474 1882.081543,63.284447 
	C1894.718140,62.696796 1907.402954,63.174454 1920.066650,63.133022 
	C1928.053955,63.106888 1934.611938,57.938454 1935.032715,50.110615 
	C1935.612305,39.328846 1935.634399,28.471685 1935.076416,17.689198 
	C1934.663452,9.707920 1928.359253,4.225733 1920.415405,4.121690 
	C1905.921265,3.931854 1891.421143,3.928610 1876.927124,4.117450 
	C1868.599365,4.225949 1862.497681,10.884628 1861.805786,19.145645 
	C1861.582520,21.812252 1860.327393,24.970776 1858.471436,26.837408 
	C1816.881836,68.667053 1775.143555,110.348915 1733.425781,152.050888 
	C1732.165527,153.310745 1730.821777,154.487137 1730.605835,154.688248 
	C1725.189209,152.459503 1720.790405,149.253738 1716.250244,149.039322 
	C1701.785889,148.356171 1687.267944,148.679337 1672.772949,148.830414 
	C1665.631226,148.904846 1659.680908,154.001877 1658.040283,160.863510 
	C1657.789917,161.910629 1657.528564,162.955093 1657.209961,164.255188 
	C1655.414551,163.755630 1653.977905,163.406097 1652.572876,162.957718 
	C1611.000488,149.690948 1569.428711,136.421463 1527.864502,123.129059 
	C1523.427368,121.710060 1517.429565,121.376701 1515.079712,118.303864 
	C1512.777466,115.293373 1514.209961,109.426384 1514.005493,104.813087 
	C1513.990845,104.480331 1514.007324,104.146095 1513.989624,103.813576 
	C1513.561890,95.739845 1507.682983,89.491180 1499.615601,89.369560 
	C1484.455933,89.141029 1469.287476,89.131447 1454.128662,89.387566 
	C1446.523315,89.516068 1440.378052,95.531555 1440.142334,103.089935 
	C1439.810181,113.742668 1439.770630,124.425362 1440.178223,135.073334 
	C1440.474854,142.825195 1447.030029,148.680496 1454.761353,148.735489 
	C1469.590698,148.841003 1484.421387,148.811737 1499.251099,148.744720 
	C1505.337646,148.717209 1509.622803,145.648758 1512.351929,140.303696 
	C1513.085815,138.866241 1513.746704,137.391449 1514.473145,135.866669 
	C1516.698853,136.535110 1518.616089,137.079971 1520.514038,137.685516 
	C1562.551758,151.097763 1604.589111,164.511780 1646.622437,177.937759 
	C1657.561768,181.431900 1657.555664,181.450958 1657.861328,192.785385 
	C1658.104370,201.799225 1664.017944,207.814789 1672.946899,207.887070 
	C1684.610352,207.981491 1696.304443,207.395996 1707.932251,208.048630 
	C1726.773682,209.106155 1732.511353,202.487305 1731.114380,184.886353 
	C1730.819214,181.166382 1732.328857,178.704117 1734.857300,176.194122 
	C1755.906250,155.297867 1776.845825,134.291580 1798.318604,112.818573 
M885.586792,573.080017 
	C882.989990,575.763611 880.393188,578.447205 877.492371,581.444946 
	C881.474670,584.699341 884.742554,587.369934 887.991882,590.025391 
	C897.226074,579.372559 909.930664,575.982605 919.488464,581.259033 
	C925.544189,584.602173 928.085876,592.813171 925.677429,601.839111 
	C920.117554,601.839111 914.445557,601.508118 908.830200,601.930969 
	C903.058533,602.365601 897.161621,602.913574 891.640015,604.516296 
	C880.734192,607.681946 875.303589,615.484009 875.425659,626.316589 
	C875.555420,637.838440 881.716980,646.062134 892.599182,649.237915 
	C907.303589,653.529175 917.435364,649.621582 927.391541,635.819031 
	C932.646362,648.102173 938.559326,650.889648 953.627930,648.145325 
	C953.627930,643.924194 953.627930,639.695374 953.627930,634.967407 
	C950.254944,634.967407 947.186218,634.967407 943.759094,634.967407 
	C943.759094,632.833008 943.759521,631.194031 943.759094,629.555115 
	C943.756104,617.903198 943.834900,606.250610 943.726807,594.599609 
	C943.617432,582.809143 939.306458,573.149170 927.705933,568.848938 
	C913.449829,563.564148 899.322876,563.903687 885.586792,573.080017 
M605.128296,566.678040 
	C595.860901,568.744446 588.260193,573.126160 583.320251,581.932617 
	C586.863586,584.808899 590.048523,587.394348 593.217590,589.966858 
	C602.599670,579.493713 614.391357,576.136353 624.142334,580.945251 
	C630.500244,584.080811 633.052979,591.368042 631.255676,601.834839 
	C625.679016,601.834839 619.999634,601.471069 614.388245,601.932983 
	C608.287415,602.435181 602.044434,603.026611 596.229004,604.786926 
	C585.584534,608.009033 580.654968,615.561890 580.790283,626.570374 
	C580.925659,637.584045 586.407043,646.233337 596.754333,648.635925 
	C603.332825,650.163452 610.621826,650.034973 617.366272,649.069763 
	C624.917175,647.989014 629.485779,642.124451 632.497620,634.921509 
	C637.557434,648.009766 643.118896,650.745544 658.802490,648.188843 
	C658.802490,643.961182 658.802490,639.722229 658.802490,635.009644 
	C655.454895,635.009644 652.383301,635.009644 648.961426,635.009644 
	C648.961426,633.062866 648.962708,631.592712 648.961182,630.122559 
	C648.948608,617.790894 649.119629,605.455566 648.873718,593.128540 
	C648.597290,579.271484 640.853821,569.497009 627.264160,567.065247 
	C620.348083,565.827698 613.065735,566.637573 605.128296,566.678040 
M1069.244019,536.007568 
	C1069.585571,533.384460 1068.844482,532.145447 1065.792358,532.208557 
	C1056.471436,532.401428 1047.143799,532.278442 1037.818848,532.278320 
	C1033.719604,532.278320 1029.620361,532.278320 1025.505859,532.278320 
	C1025.505859,537.251404 1025.505859,541.497253 1025.505859,546.103088 
	C1034.415283,546.103088 1043.036133,546.103088 1051.783569,546.103088 
	C1051.783569,575.841064 1051.783569,605.212891 1051.783569,634.932861 
	C1042.843262,634.932861 1034.219849,634.932861 1025.591431,634.932861 
	C1025.591431,639.669250 1025.591431,644.049133 1025.591431,648.470093 
	C1049.220703,648.470093 1072.468140,648.470093 1095.828857,648.470093 
	C1095.828857,643.834229 1095.828857,639.452332 1095.828857,634.629517 
	C1086.928833,634.629517 1078.337891,634.629517 1069.243774,634.629517 
	C1069.243774,601.765137 1069.243774,569.343018 1069.244019,536.007568 
M1765.868408,583.638611 
	C1762.437988,597.322327 1767.907104,607.425842 1781.212891,611.674316 
	C1784.370361,612.682495 1787.670776,613.288330 1790.940186,613.891052 
	C1797.159790,615.037781 1803.451538,615.834961 1809.622314,617.191223 
	C1813.770752,618.102905 1816.876465,620.476196 1817.075806,625.333557 
	C1817.270386,630.073547 1815.292236,633.711487 1810.854858,635.043701 
	C1806.466553,636.360962 1801.790771,637.220154 1797.218994,637.326477 
	C1786.719971,637.570923 1777.939331,633.170471 1770.753296,625.512939 
	C1767.063965,628.898254 1763.803467,631.889954 1760.587158,634.841248 
	C1775.829834,654.738220 1812.207642,653.768616 1824.891724,643.214417 
	C1825.019775,643.107971 1825.152344,643.006897 1825.281860,642.902222 
	C1832.592163,636.992859 1835.081543,629.150269 1833.676025,620.172363 
	C1832.283813,611.280273 1826.164795,606.403625 1817.994141,603.840820 
	C1814.988037,602.897888 1811.865112,602.289429 1808.763428,601.696228 
	C1802.066040,600.415283 1795.312744,599.405090 1788.651001,597.966492 
	C1784.572266,597.085693 1781.912231,594.625671 1781.775024,589.993835 
	C1781.632446,585.185181 1783.755493,581.916260 1788.171753,580.410767 
	C1790.810547,579.511169 1793.667114,579.034119 1796.458862,578.837585 
	C1806.674438,578.118286 1815.855225,580.738281 1823.174194,588.428162 
	C1826.584106,584.835632 1829.526489,581.735474 1832.942139,578.136780 
	C1829.880737,575.826965 1827.460571,573.494568 1824.615601,571.939209 
	C1809.954102,563.924194 1794.709229,563.631104 1779.307129,569.436401 
	C1772.999023,571.814148 1768.301758,576.234436 1765.868408,583.638611 
M753.841309,574.384583 
	C752.469055,576.475769 751.096802,578.566956 749.033325,581.711487 
	C749.033325,576.234009 749.033325,572.121643 749.033325,567.927124 
	C743.215515,567.927124 737.682922,567.927124 732.304016,567.927124 
	C732.304016,595.004822 732.304016,621.718506 732.304016,648.382324 
	C738.048645,648.382324 743.450928,648.382324 749.062439,648.382324 
	C749.062439,630.414551 749.105835,612.775208 749.032898,595.136414 
	C749.013916,590.543457 750.081116,586.442078 753.913452,583.696655 
	C760.188782,579.201050 767.215820,578.401184 774.338135,581.079346 
	C781.002014,583.585205 782.859680,589.464905 783.325562,595.944580 
	C783.468567,597.934448 783.537781,599.933655 783.540649,601.928711 
	C783.559448,614.913940 783.550659,627.899231 783.550903,640.884460 
	C783.550964,643.340942 783.550903,645.797485 783.550903,648.432129 
	C789.469360,648.432129 794.859680,648.432129 800.731201,648.432129 
	C800.731201,638.879700 800.820007,629.597900 800.707642,620.318542 
	C800.580811,609.840881 800.848816,599.312134 799.883179,588.904053 
	C798.901611,578.323914 793.117981,570.350220 782.668945,567.161133 
	C772.170044,563.956909 762.199829,565.022644 753.841309,574.384583 
M1339.848999,587.573242 
	C1339.864868,601.570068 1339.726562,615.569275 1339.947510,629.562866 
	C1340.110718,639.895081 1345.732666,647.332031 1355.288208,648.016907 
	C1367.153442,648.867249 1379.126221,648.220703 1391.107422,648.220703 
	C1391.107422,643.792847 1391.107422,639.436707 1391.107422,634.710083 
	C1379.586304,634.710083 1368.482666,634.710083 1357.213623,634.710083 
	C1357.213623,616.747925 1357.213623,599.166870 1357.213623,581.113770 
	C1368.718628,581.113770 1379.972900,581.113770 1391.198486,581.113770 
	C1391.198486,576.392029 1391.198486,572.148071 1391.198486,567.418091 
	C1379.660034,567.418091 1368.447266,567.418091 1356.778564,567.418091 
	C1356.778564,557.674194 1356.778564,548.416626 1356.778564,539.266479 
	C1351.248657,539.266479 1346.197510,539.266479 1340.928345,539.266479 
	C1340.928345,545.783691 1340.973999,551.936584 1340.916626,558.088501 
	C1340.846191,565.653015 1339.031982,567.455627 1331.383179,567.550476 
	C1325.953857,567.617798 1320.522949,567.563538 1315.125977,567.563538 
	C1315.125977,572.476379 1315.125977,576.740173 1315.125977,581.576538 
	C1323.448853,581.576538 1331.505615,581.576538 1339.848999,581.576538 
	C1339.848999,583.629700 1339.848999,585.107971 1339.848999,587.573242 
M1639.844849,631.785217 
	C1637.649902,627.414612 1634.244751,623.228943 1633.542236,618.630371 
	C1632.473633,611.635437 1632.657349,604.286438 1633.429321,597.210022 
	C1634.672852,585.813171 1642.553589,579.659424 1654.029297,579.841125 
	C1662.591675,579.976746 1668.370117,584.251404 1671.848267,592.042053 
	C1676.530151,589.456116 1680.691284,587.157837 1684.882446,584.843018 
	C1684.355835,583.623474 1684.078247,582.838745 1683.688110,582.114746 
	C1683.215698,581.237549 1682.677246,580.391846 1682.117188,579.566589 
	C1673.905518,567.465210 1661.888916,564.531006 1648.328735,565.966187 
	C1634.673096,567.411316 1624.545532,574.231079 1619.077637,587.066650 
	C1614.636841,597.490601 1614.181152,608.416016 1616.141113,619.451172 
	C1620.684204,645.029053 1647.795410,658.594116 1671.136230,646.961060 
	C1677.882324,643.598816 1682.888428,638.441895 1686.268311,631.138062 
	C1682.058472,628.560852 1678.029053,626.094177 1674.022095,623.641296 
	C1664.893066,637.223694 1652.617798,640.229919 1639.844849,631.785217 
M1471.914673,639.678223 
	C1471.914673,642.603577 1471.914673,645.528870 1471.914673,648.401733 
	C1495.831787,648.401733 1519.062134,648.401733 1542.482178,648.401733 
	C1542.482178,643.825867 1542.482178,639.566650 1542.482178,634.747864 
	C1533.889771,634.747864 1525.506714,634.747864 1516.678955,634.747864 
	C1516.678955,612.124268 1516.678955,590.055725 1516.678955,567.919800 
	C1501.518188,567.919800 1486.820923,567.919800 1472.213623,567.919800 
	C1472.213623,572.543335 1472.213623,576.797607 1472.213623,581.588684 
	C1481.404541,581.588684 1490.306519,581.588684 1499.249634,581.588684 
	C1499.249634,599.543823 1499.249634,616.948669 1499.249634,634.827148 
	C1490.030640,634.827148 1481.123657,634.827148 1472.104858,634.827148 
	C1472.026367,636.449585 1471.970581,637.602722 1471.914673,639.678223 
M1505.937012,552.695007 
	C1515.005493,552.859802 1518.759888,550.692871 1519.771973,544.709717 
	C1521.306885,535.636841 1517.074219,530.776367 1507.739136,530.891968 
	C1500.654419,530.979675 1497.206909,533.609863 1496.445190,539.508484 
	C1495.456665,547.163513 1497.856812,550.793335 1505.937012,552.695007 
z"/>
<path fill="#000000" opacity="1.000000" stroke="none" 
	d="
M1174.466797,681.000000 
	C1173.625122,676.304138 1173.250244,671.608276 1172.820923,666.230591 
	C1178.534790,666.230591 1183.484131,666.074036 1188.417236,666.290161 
	C1191.306519,666.416687 1192.556030,665.360291 1193.983032,662.761475 
	C1199.517334,652.682129 1199.072510,643.443481 1194.151855,632.824036 
	C1184.868042,612.788025 1177.165283,592.019348 1168.811035,571.552856 
	C1168.381470,570.500305 1168.003540,569.426514 1167.301392,567.567627 
	C1172.989746,567.567627 1178.248291,567.340759 1183.457520,567.746216 
	C1184.590942,567.834534 1185.959839,570.031311 1186.523682,571.520691 
	C1193.347900,589.547302 1200.040039,607.623901 1206.772461,625.685425 
	C1207.172241,626.758118 1207.622314,627.812012 1208.458252,629.893860 
	C1209.493530,627.385193 1210.242188,625.719360 1210.876465,624.010986 
	C1217.353394,606.563416 1223.877197,589.132629 1230.214722,571.634399 
	C1231.347046,568.507935 1232.821655,567.140076 1236.308105,567.473389 
	C1240.264282,567.851440 1244.284424,567.560547 1248.719360,567.560547 
	C1248.438599,568.714478 1248.332886,569.627014 1248.000122,570.447388 
	C1235.377808,601.557739 1222.674683,632.635620 1210.131226,663.777649 
	C1206.419800,672.991882 1200.567749,679.262756 1190.095947,680.614380 
	C1184.977905,681.000000 1179.955811,681.000000 1174.466797,681.000000 
z"/>
<path fill="#6962F0" opacity="1.000000" stroke="none" 
	d="
M88.290359,591.709229 
	C47.033260,555.772705 20.528179,511.367493 10.487389,457.980316 
	C-1.523360,394.118835 10.696648,334.611511 47.746960,281.084473 
	C86.415558,225.219406 140.091705,191.499741 207.089783,181.430313 
	C278.982300,170.625259 343.704132,189.053726 399.156250,236.586197 
	C444.393616,275.362823 471.027771,324.893677 478.703094,383.922394 
	C491.920410,485.572632 437.496918,585.210999 343.824493,626.555847 
	C254.349823,666.047668 169.738831,654.532776 91.953651,594.891235 
	C90.766029,593.980652 89.686432,592.929138 88.290359,591.709229 
M182.735779,268.185089 
	C177.153961,268.963837 171.503693,269.425842 166.010101,270.612885 
	C160.800400,271.738556 158.685394,275.231720 158.692719,280.855957 
	C158.820908,379.351654 158.815216,477.847656 158.689651,576.343384 
	C158.683884,580.863403 160.254471,583.019714 164.452652,584.113647 
	C183.809509,589.157776 203.432129,591.111572 223.362686,589.245239 
	C236.583145,588.007324 237.233963,587.149536 237.234070,574.074341 
	C237.234650,503.077301 237.235260,432.080261 237.231186,361.083221 
	C237.231033,358.444855 236.822540,355.863525 239.961029,354.270172 
	C249.011734,349.675415 257.907166,344.775604 266.940277,340.145203 
	C275.188416,335.917145 283.700653,336.220856 292.114563,339.540710 
	C298.923065,342.227051 305.461639,345.625061 312.335022,348.113373 
	C325.695007,352.950043 332.988251,349.736145 337.706573,336.418243 
	C341.142700,326.719543 343.697327,316.691467 346.314819,306.723541 
	C350.786407,289.695068 350.173279,288.453766 334.883026,279.137726 
	C334.456146,278.877625 334.049042,278.582642 333.611511,278.342682 
	C313.761932,267.457184 293.600067,263.803894 272.910278,276.036987 
	C260.441132,283.409546 248.088684,290.979431 235.682144,298.457947 
	C233.903976,299.529846 232.116455,300.586212 229.982880,301.858765 
	C225.959061,294.279663 221.719650,287.451324 218.658340,280.130371 
	C216.541656,275.068451 213.239899,271.883301 208.356598,271.033813 
	C200.209274,269.616577 191.910507,269.070038 182.735779,268.185089 
z"/>
<path fill="#6962F0" opacity="1.000000" stroke="none" 
	d="
M1817.696777,268.264465 
	C1830.601685,280.548157 1836.676880,296.003296 1839.472046,312.644165 
	C1846.282227,353.186981 1846.462769,393.830505 1839.023071,434.341675 
	C1836.698120,447.001526 1832.572144,459.150269 1825.091797,469.866699 
	C1815.489502,483.623138 1801.588379,490.854645 1785.795898,494.495605 
	C1762.583862,499.847168 1739.192017,499.750244 1715.961426,494.449951 
	C1688.064087,488.084991 1671.886963,469.988007 1665.041382,442.715485 
	C1657.038086,410.830475 1657.073242,378.439850 1658.671875,345.937408 
	C1659.450439,330.110931 1661.048828,314.369385 1666.040161,299.250336 
	C1668.359863,292.223816 1671.698853,285.533813 1675.365845,278.394531 
	C1680.676392,288.194855 1689.182373,288.379639 1698.163574,288.213318 
	C1713.818970,287.923309 1729.483521,288.179749 1745.143799,288.106354 
	C1755.509766,288.057770 1761.853149,281.652649 1761.983521,271.218170 
	C1762.060059,265.089142 1761.997437,258.958344 1761.997437,251.957489 
	C1781.942261,253.675552 1801.263306,255.151260 1817.696777,268.264465 
M1724.665161,430.762115 
	C1726.310547,436.313721 1727.643433,441.984711 1729.702393,447.378448 
	C1731.289062,451.535370 1734.840088,453.240875 1739.421875,452.598785 
	C1744.031494,451.952789 1748.687012,451.622437 1753.286377,450.917816 
	C1765.948242,448.978027 1770.666626,444.565521 1773.370850,432.169556 
	C1774.078247,428.926910 1774.807495,425.620605 1774.907227,422.324738 
	C1775.636353,398.213440 1776.788086,374.092682 1776.592896,349.984741 
	C1776.489868,337.264984 1774.712158,324.419128 1772.312134,311.894348 
	C1769.552734,297.493591 1766.281860,295.774139 1751.726196,297.147552 
	C1733.983154,298.821747 1726.135986,305.872894 1724.089478,322.860107 
	C1719.790283,358.547607 1720.001953,394.250916 1724.665161,430.762115 
z"/>
<path fill="#000000" opacity="1.000000" stroke="none" 
	d="
M849.805420,275.071411 
	C849.053650,268.269928 852.137512,264.500275 857.531250,261.509705 
	C872.796997,253.045563 889.340759,249.829224 906.472168,249.105667 
	C923.172852,248.400299 939.747498,249.569901 956.093018,253.456360 
	C978.997498,258.902313 992.940002,273.546997 1000.080078,295.468231 
	C1006.868591,316.310028 1008.644775,337.906067 1008.741455,359.548340 
	C1008.931030,402.033539 1008.271118,444.522217 1008.063843,487.009949 
	C1008.042297,491.437927 1006.243835,494.487274 1001.935791,494.516174 
	C990.509949,494.592834 979.067261,494.356781 967.659973,493.726440 
	C963.963928,493.522186 961.237610,491.047333 959.698486,487.102020 
	C957.913757,482.527283 955.212463,478.310150 953.570984,475.194397 
	C942.949524,481.386169 933.164185,488.591095 922.266174,493.116821 
	C902.391479,501.370392 868.683350,493.351105 855.294800,478.559052 
	C847.426514,469.866089 844.591980,458.952606 843.494690,447.859833 
	C842.154968,434.315552 841.157104,420.579834 841.872498,407.025146 
	C843.084290,384.064575 858.501831,366.602966 880.940674,360.724670 
	C901.076233,355.449768 921.238647,350.277252 941.386658,345.049713 
	C942.496521,344.761749 943.582825,344.383118 945.831909,343.693512 
	C944.408508,333.056213 943.571594,322.267792 941.381104,311.761536 
	C939.362427,302.079041 933.206970,297.749084 922.667725,296.732300 
	C908.680786,295.382874 895.082214,297.041992 881.989380,302.326813 
	C876.894104,304.383453 871.709229,306.229980 866.680237,308.434723 
	C862.796570,310.137329 860.125427,308.949951 858.474792,305.426575 
	C854.025635,295.929382 849.610901,286.392090 849.805420,275.071411 
M903.518738,446.127747 
	C918.084534,454.690430 934.949951,449.004486 939.607910,432.987518 
	C942.457642,423.188385 943.608826,412.806213 944.641296,402.596741 
	C945.418457,394.912109 944.794983,387.085846 944.794983,377.936798 
	C934.561829,381.206818 924.481323,383.564606 915.129944,387.608276 
	C899.010681,394.578369 892.004333,405.658447 893.310547,420.279480 
	C894.140930,429.574677 895.223145,438.921021 903.518738,446.127747 
z"/>
<path fill="#000000" opacity="1.000000" stroke="none" 
	d="
M1181.110840,467.940735 
	C1173.783569,456.270752 1171.859009,444.032532 1172.053955,430.596771 
	C1172.687256,386.947327 1172.290894,343.282990 1172.290894,299.624359 
	C1172.290894,297.827271 1172.290894,296.030182 1172.290894,293.704193 
	C1168.173462,293.704193 1164.395020,293.704895 1160.616577,293.704041 
	C1152.284790,293.702209 1143.951904,293.783936 1135.621582,293.669983 
	C1129.259644,293.582947 1128.028320,292.384247 1128.090942,285.922913 
	C1128.134277,281.446106 1128.504517,276.941711 1129.143555,272.509430 
	C1129.902222,267.247253 1132.674561,264.012573 1138.429077,263.077606 
	C1148.450073,261.449585 1158.347534,259.075043 1168.341431,257.259308 
	C1171.261841,256.728699 1172.895020,255.492905 1174.200684,252.790649 
	C1181.436157,237.816711 1188.900269,222.953430 1196.268066,208.043259 
	C1200.216553,200.052979 1211.924561,194.328384 1220.236084,197.023911 
	C1222.234863,197.672165 1224.218384,200.658386 1224.817993,202.935638 
	C1227.481079,213.050507 1229.771729,223.270447 1231.929688,233.508743 
	C1233.266602,239.851288 1234.201904,246.283218 1235.161011,252.698410 
	C1235.575439,255.469910 1236.672852,256.535736 1239.684692,256.491119 
	C1252.346191,256.303406 1265.012085,256.398834 1277.676392,256.418274 
	C1283.758423,256.427612 1286.340210,257.803833 1286.880981,263.789642 
	C1287.590942,271.649261 1287.320068,279.662079 1286.709351,287.550079 
	C1286.387451,291.707062 1283.471802,293.913208 1278.654541,293.802490 
	C1265.996948,293.511536 1253.328125,293.704193 1240.663818,293.704193 
	C1239.041992,293.704193 1237.420166,293.704193 1235.375977,293.704193 
	C1235.375977,296.022614 1235.375977,297.813751 1235.375977,299.604889 
	C1235.375977,337.431244 1235.912231,375.267944 1235.183105,413.080231 
	C1234.714111,437.400421 1237.974121,461.215210 1241.421509,485.100708 
	C1241.706787,487.077209 1241.929199,489.062775 1242.217407,491.038757 
	C1243.622314,500.671478 1243.631226,501.483887 1234.156616,501.949982 
	C1223.788208,502.460114 1213.318970,501.639282 1202.937256,500.836151 
	C1198.364990,500.482422 1195.365479,497.095856 1193.359375,492.909698 
	C1189.406738,484.662079 1185.298218,476.489075 1181.110840,467.940735 
z"/>
<path fill="#000000" opacity="1.000000" stroke="none" 
	d="
M716.158325,274.366943 
	C713.536987,283.707916 711.380920,292.781738 708.355164,301.555603 
	C704.857849,311.696411 699.501709,313.967743 689.342773,310.352905 
	C685.433472,308.961853 681.596436,307.275146 677.910217,305.367889 
	C668.550964,300.525421 659.374695,300.825897 650.221741,305.811676 
	C645.543884,308.359741 640.953247,311.092194 636.150391,313.378387 
	C632.662048,315.038910 631.619202,317.306030 631.629333,321.171112 
	C631.771606,375.307159 631.726685,429.443695 631.724976,483.580109 
	C631.724670,493.129822 631.041870,494.265167 621.494873,495.135559 
	C606.450562,496.507172 591.589172,494.570679 576.843018,491.615601 
	C572.531250,490.751556 571.131104,488.306305 571.139099,483.830872 
	C571.271912,409.206146 571.231262,334.581116 571.237976,259.956146 
	C571.238586,253.443115 573.231262,250.445724 579.741333,250.021851 
	C588.497131,249.451797 597.351135,249.540771 606.107666,250.146744 
	C611.395691,250.512695 615.522644,253.279297 617.698730,258.943542 
	C619.818726,264.462189 623.143616,269.517944 625.872131,274.650085 
	C636.287537,268.328125 646.335083,262.179749 656.431030,256.111664 
	C677.545959,243.420700 695.654663,249.560394 712.541199,261.740204 
	C717.000549,264.956604 718.833679,268.732513 716.158325,274.366943 
z"/>
<path fill="#6861F0" opacity="1.000000" stroke="none" 
	d="
M1440.001099,316.000000 
	C1440.001099,298.166962 1439.975830,280.833832 1440.008667,263.500854 
	C1440.036987,248.610580 1449.518677,239.087738 1464.305054,239.048141 
	C1472.971558,239.024933 1481.638428,239.006409 1490.304688,239.052963 
	C1504.256836,239.127914 1513.982056,248.730896 1513.987427,262.561981 
	C1514.014526,332.394165 1514.013550,402.226379 1513.988525,472.058563 
	C1513.983521,486.142090 1504.196533,495.760590 1489.992310,495.792114 
	C1481.659058,495.810608 1473.325928,495.801025 1464.992676,495.794708 
	C1449.530273,495.782990 1440.015747,486.381836 1440.009399,470.997528 
	C1439.988525,419.498352 1440.001221,367.999176 1440.001099,316.000000 
z"/>
<path fill="#6A63F0" opacity="1.000000" stroke="none" 
	d="
M1798.068481,113.068542 
	C1776.845825,134.291580 1755.906250,155.297867 1734.857300,176.194122 
	C1732.328857,178.704117 1730.819214,181.166382 1731.114380,184.886353 
	C1732.511353,202.487305 1726.773682,209.106155 1707.932251,208.048630 
	C1696.304443,207.395996 1684.610352,207.981491 1672.946899,207.887070 
	C1664.017944,207.814789 1658.104370,201.799225 1657.861328,192.785385 
	C1657.555664,181.450958 1657.561768,181.431900 1646.622437,177.937759 
	C1604.589111,164.511780 1562.551758,151.097763 1520.514038,137.685516 
	C1518.616089,137.079971 1516.698853,136.535110 1514.473145,135.866669 
	C1513.746704,137.391449 1513.085815,138.866241 1512.351929,140.303696 
	C1509.622803,145.648758 1505.337646,148.717209 1499.251099,148.744720 
	C1484.421387,148.811737 1469.590698,148.841003 1454.761353,148.735489 
	C1447.030029,148.680496 1440.474854,142.825195 1440.178223,135.073334 
	C1439.770630,124.425362 1439.810181,113.742668 1440.142334,103.089935 
	C1440.378052,95.531555 1446.523315,89.516068 1454.128662,89.387566 
	C1469.287476,89.131447 1484.455933,89.141029 1499.615601,89.369560 
	C1507.682983,89.491180 1513.561890,95.739845 1513.989624,103.813576 
	C1514.007324,104.146095 1513.990845,104.480331 1514.005493,104.813087 
	C1514.209961,109.426384 1512.777466,115.293373 1515.079712,118.303864 
	C1517.429565,121.376701 1523.427368,121.710060 1527.864502,123.129059 
	C1569.428711,136.421463 1611.000488,149.690948 1652.572876,162.957718 
	C1653.977905,163.406097 1655.414551,163.755630 1657.209961,164.255188 
	C1657.528564,162.955093 1657.789917,161.910629 1658.040283,160.863510 
	C1659.680908,154.001877 1665.631226,148.904846 1672.772949,148.830414 
	C1687.267944,148.679337 1701.785889,148.356171 1716.250244,149.039322 
	C1720.790405,149.253738 1725.189209,152.459503 1730.605835,154.688248 
	C1730.821777,154.487137 1732.165527,153.310745 1733.425781,152.050888 
	C1775.143555,110.348915 1816.881836,68.667053 1858.471436,26.837408 
	C1860.327393,24.970776 1861.582520,21.812252 1861.805786,19.145645 
	C1862.497681,10.884628 1868.599365,4.225949 1876.927124,4.117450 
	C1891.421143,3.928610 1905.921265,3.931854 1920.415405,4.121690 
	C1928.359253,4.225733 1934.663452,9.707920 1935.076416,17.689198 
	C1935.634399,28.471685 1935.612305,39.328846 1935.032715,50.110615 
	C1934.611938,57.938454 1928.053955,63.106888 1920.066650,63.133022 
	C1907.402954,63.174454 1894.718140,62.696796 1882.081543,63.284447 
	C1871.780884,63.763474 1864.475830,60.769253 1861.622925,49.500622 
	C1840.206909,70.921211 1819.262695,91.869888 1798.068481,113.068542 
z"/>
<path fill="#000000" opacity="1.000000" stroke="none" 
	d="
M885.878540,572.877197 
	C899.322876,563.903687 913.449829,563.564148 927.705933,568.848938 
	C939.306458,573.149170 943.617432,582.809143 943.726807,594.599609 
	C943.834900,606.250610 943.756104,617.903198 943.759094,629.555115 
	C943.759521,631.194031 943.759094,632.833008 943.759094,634.967407 
	C947.186218,634.967407 950.254944,634.967407 953.627930,634.967407 
	C953.627930,639.695374 953.627930,643.924194 953.627930,648.145325 
	C938.559326,650.889648 932.646362,648.102173 927.391541,635.819031 
	C917.435364,649.621582 907.303589,653.529175 892.599182,649.237915 
	C881.716980,646.062134 875.555420,637.838440 875.425659,626.316589 
	C875.303589,615.484009 880.734192,607.681946 891.640015,604.516296 
	C897.161621,602.913574 903.058533,602.365601 908.830200,601.930969 
	C914.445557,601.508118 920.117554,601.839111 925.677429,601.839111 
	C928.085876,592.813171 925.544189,584.602173 919.488464,581.259033 
	C909.930664,575.982605 897.226074,579.372559 887.991882,590.025391 
	C884.742554,587.369934 881.474670,584.699341 877.492371,581.444946 
	C880.393188,578.447205 882.989990,575.763611 885.878540,572.877197 
M925.147156,612.741943 
	C921.493225,612.729126 917.828430,612.532959 914.188171,612.749573 
	C909.572205,613.024109 904.849304,613.122437 900.403076,614.225952 
	C894.569092,615.674011 892.697815,619.145813 892.812378,625.937561 
	C892.919128,632.268250 895.043823,635.472290 900.722656,637.000854 
	C907.558167,638.840820 914.423462,638.549377 920.349304,634.481079 
	C922.855225,632.760681 925.349976,629.671875 925.931824,626.814392 
	C926.828796,622.410156 926.075256,617.669800 925.147156,612.741943 
z"/>
<path fill="#000000" opacity="1.000000" stroke="none" 
	d="
M605.538574,566.599976 
	C613.065735,566.637573 620.348083,565.827698 627.264160,567.065247 
	C640.853821,569.497009 648.597290,579.271484 648.873718,593.128540 
	C649.119629,605.455566 648.948608,617.790894 648.961182,630.122559 
	C648.962708,631.592712 648.961426,633.062866 648.961426,635.009644 
	C652.383301,635.009644 655.454895,635.009644 658.802490,635.009644 
	C658.802490,639.722229 658.802490,643.961182 658.802490,648.188843 
	C643.118896,650.745544 637.557434,648.009766 632.497620,634.921509 
	C629.485779,642.124451 624.917175,647.989014 617.366272,649.069763 
	C610.621826,650.034973 603.332825,650.163452 596.754333,648.635925 
	C586.407043,646.233337 580.925659,637.584045 580.790283,626.570374 
	C580.654968,615.561890 585.584534,608.009033 596.229004,604.786926 
	C602.044434,603.026611 608.287415,602.435181 614.388245,601.932983 
	C619.999634,601.471069 625.679016,601.834839 631.255676,601.834839 
	C633.052979,591.368042 630.500244,584.080811 624.142334,580.945251 
	C614.391357,576.136353 602.599670,579.493713 593.217590,589.966858 
	C590.048523,587.394348 586.863586,584.808899 583.320251,581.932617 
	C588.260193,573.126160 595.860901,568.744446 605.538574,566.599976 
M605.849182,637.009399 
	C611.717407,636.623535 617.737854,636.915527 623.406799,635.642273 
	C628.141113,634.578979 631.305420,630.611389 631.708862,625.439941 
	C632.027954,621.349182 631.773071,617.213623 631.773071,612.312012 
	C623.385254,612.757263 615.424133,612.862549 607.543762,613.714233 
	C602.616089,614.246704 598.796448,616.993713 598.067078,622.496826 
	C597.072083,630.004089 598.897095,633.658081 605.849182,637.009399 
z"/>
<path fill="#000000" opacity="1.000000" stroke="none" 
	d="
M1069.243896,536.464233 
	C1069.243774,569.343018 1069.243774,601.765137 1069.243774,634.629517 
	C1078.337891,634.629517 1086.928833,634.629517 1095.828857,634.629517 
	C1095.828857,639.452332 1095.828857,643.834229 1095.828857,648.470093 
	C1072.468140,648.470093 1049.220703,648.470093 1025.591431,648.470093 
	C1025.591431,644.049133 1025.591431,639.669250 1025.591431,634.932861 
	C1034.219849,634.932861 1042.843262,634.932861 1051.783569,634.932861 
	C1051.783569,605.212891 1051.783569,575.841064 1051.783569,546.103088 
	C1043.036133,546.103088 1034.415283,546.103088 1025.505859,546.103088 
	C1025.505859,541.497253 1025.505859,537.251404 1025.505859,532.278320 
	C1029.620361,532.278320 1033.719604,532.278320 1037.818848,532.278320 
	C1047.143799,532.278442 1056.471436,532.401428 1065.792358,532.208557 
	C1068.844482,532.145447 1069.585571,533.384460 1069.243896,536.464233 
z"/>
<path fill="#000000" opacity="1.000000" stroke="none" 
	d="
M1765.956055,583.240601 
	C1768.301758,576.234436 1772.999023,571.814148 1779.307129,569.436401 
	C1794.709229,563.631104 1809.954102,563.924194 1824.615601,571.939209 
	C1827.460571,573.494568 1829.880737,575.826965 1832.942139,578.136780 
	C1829.526489,581.735474 1826.584106,584.835632 1823.174194,588.428162 
	C1815.855225,580.738281 1806.674438,578.118286 1796.458862,578.837585 
	C1793.667114,579.034119 1790.810547,579.511169 1788.171753,580.410767 
	C1783.755493,581.916260 1781.632446,585.185181 1781.775024,589.993835 
	C1781.912231,594.625671 1784.572266,597.085693 1788.651001,597.966492 
	C1795.312744,599.405090 1802.066040,600.415283 1808.763428,601.696228 
	C1811.865112,602.289429 1814.988037,602.897888 1817.994141,603.840820 
	C1826.164795,606.403625 1832.283813,611.280273 1833.676025,620.172363 
	C1835.081543,629.150269 1832.592163,636.992859 1825.281860,642.902222 
	C1825.152344,643.006897 1825.019775,643.107971 1824.891724,643.214417 
	C1812.207642,653.768616 1775.829834,654.738220 1760.587158,634.841248 
	C1763.803467,631.889954 1767.063965,628.898254 1770.753296,625.512939 
	C1777.939331,633.170471 1786.719971,637.570923 1797.218994,637.326477 
	C1801.790771,637.220154 1806.466553,636.360962 1810.854858,635.043701 
	C1815.292236,633.711487 1817.270386,630.073547 1817.075806,625.333557 
	C1816.876465,620.476196 1813.770752,618.102905 1809.622314,617.191223 
	C1803.451538,615.834961 1797.159790,615.037781 1790.940186,613.891052 
	C1787.670776,613.288330 1784.370361,612.682495 1781.212891,611.674316 
	C1767.907104,607.425842 1762.437988,597.322327 1765.956055,583.240601 
z"/>
<path fill="#000000" opacity="1.000000" stroke="none" 
	d="
M754.061768,574.099609 
	C762.199829,565.022644 772.170044,563.956909 782.668945,567.161133 
	C793.117981,570.350220 798.901611,578.323914 799.883179,588.904053 
	C800.848816,599.312134 800.580811,609.840881 800.707642,620.318542 
	C800.820007,629.597900 800.731201,638.879700 800.731201,648.432129 
	C794.859680,648.432129 789.469360,648.432129 783.550903,648.432129 
	C783.550903,645.797485 783.550964,643.340942 783.550903,640.884460 
	C783.550659,627.899231 783.559448,614.913940 783.540649,601.928711 
	C783.537781,599.933655 783.468567,597.934448 783.325562,595.944580 
	C782.859680,589.464905 781.002014,583.585205 774.338135,581.079346 
	C767.215820,578.401184 760.188782,579.201050 753.913452,583.696655 
	C750.081116,586.442078 749.013916,590.543457 749.032898,595.136414 
	C749.105835,612.775208 749.062439,630.414551 749.062439,648.382324 
	C743.450928,648.382324 738.048645,648.382324 732.304016,648.382324 
	C732.304016,621.718506 732.304016,595.004822 732.304016,567.927124 
	C737.682922,567.927124 743.215515,567.927124 749.033325,567.927124 
	C749.033325,572.121643 749.033325,576.234009 749.033325,581.711487 
	C751.096802,578.566956 752.469055,576.475769 754.061768,574.099609 
z"/>
<path fill="#000000" opacity="1.000000" stroke="none" 
	d="
M1339.848999,587.079773 
	C1339.848999,585.107971 1339.848999,583.629700 1339.848999,581.576538 
	C1331.505615,581.576538 1323.448853,581.576538 1315.125977,581.576538 
	C1315.125977,576.740173 1315.125977,572.476379 1315.125977,567.563538 
	C1320.522949,567.563538 1325.953857,567.617798 1331.383179,567.550476 
	C1339.031982,567.455627 1340.846191,565.653015 1340.916626,558.088501 
	C1340.973999,551.936584 1340.928345,545.783691 1340.928345,539.266479 
	C1346.197510,539.266479 1351.248657,539.266479 1356.778564,539.266479 
	C1356.778564,548.416626 1356.778564,557.674194 1356.778564,567.418091 
	C1368.447266,567.418091 1379.660034,567.418091 1391.198486,567.418091 
	C1391.198486,572.148071 1391.198486,576.392029 1391.198486,581.113770 
	C1379.972900,581.113770 1368.718628,581.113770 1357.213623,581.113770 
	C1357.213623,599.166870 1357.213623,616.747925 1357.213623,634.710083 
	C1368.482666,634.710083 1379.586304,634.710083 1391.107422,634.710083 
	C1391.107422,639.436707 1391.107422,643.792847 1391.107422,648.220703 
	C1379.126221,648.220703 1367.153442,648.867249 1355.288208,648.016907 
	C1345.732666,647.332031 1340.110718,639.895081 1339.947510,629.562866 
	C1339.726562,615.569275 1339.864868,601.570068 1339.848999,587.079773 
z"/>
<path fill="#000000" opacity="1.000000" stroke="none" 
	d="
M1640.132080,632.025757 
	C1652.617798,640.229919 1664.893066,637.223694 1674.022095,623.641296 
	C1678.029053,626.094177 1682.058472,628.560852 1686.268311,631.138062 
	C1682.888428,638.441895 1677.882324,643.598816 1671.136230,646.961060 
	C1647.795410,658.594116 1620.684204,645.029053 1616.141113,619.451172 
	C1614.181152,608.416016 1614.636841,597.490601 1619.077637,587.066650 
	C1624.545532,574.231079 1634.673096,567.411316 1648.328735,565.966187 
	C1661.888916,564.531006 1673.905518,567.465210 1682.117188,579.566589 
	C1682.677246,580.391846 1683.215698,581.237549 1683.688110,582.114746 
	C1684.078247,582.838745 1684.355835,583.623474 1684.882446,584.843018 
	C1680.691284,587.157837 1676.530151,589.456116 1671.848267,592.042053 
	C1668.370117,584.251404 1662.591675,579.976746 1654.029297,579.841125 
	C1642.553589,579.659424 1634.672852,585.813171 1633.429321,597.210022 
	C1632.657349,604.286438 1632.473633,611.635437 1633.542236,618.630371 
	C1634.244751,623.228943 1637.649902,627.414612 1640.132080,632.025757 
z"/>
<path fill="#000000" opacity="1.000000" stroke="none" 
	d="
M1471.914795,639.217041 
	C1471.970581,637.602722 1472.026367,636.449585 1472.104858,634.827148 
	C1481.123657,634.827148 1490.030640,634.827148 1499.249634,634.827148 
	C1499.249634,616.948669 1499.249634,599.543823 1499.249634,581.588684 
	C1490.306519,581.588684 1481.404541,581.588684 1472.213623,581.588684 
	C1472.213623,576.797607 1472.213623,572.543335 1472.213623,567.919800 
	C1486.820923,567.919800 1501.518188,567.919800 1516.678955,567.919800 
	C1516.678955,590.055725 1516.678955,612.124268 1516.678955,634.747864 
	C1525.506714,634.747864 1533.889771,634.747864 1542.482178,634.747864 
	C1542.482178,639.566650 1542.482178,643.825867 1542.482178,648.401733 
	C1519.062134,648.401733 1495.831787,648.401733 1471.914673,648.401733 
	C1471.914673,645.528870 1471.914673,642.603577 1471.914795,639.217041 
z"/>
<path fill="#000000" opacity="1.000000" stroke="none" 
	d="
M1505.521729,552.651001 
	C1497.856812,550.793335 1495.456665,547.163513 1496.445190,539.508484 
	C1497.206909,533.609863 1500.654419,530.979675 1507.739136,530.891968 
	C1517.074219,530.776367 1521.306885,535.636841 1519.771973,544.709717 
	C1518.759888,550.692871 1515.005493,552.859802 1505.521729,552.651001 
z"/>
<path fill="none" opacity="1.000000" stroke="none" 
	d="
M183.205627,268.171021 
	C191.910507,269.070038 200.209274,269.616577 208.356598,271.033813 
	C213.239899,271.883301 216.541656,275.068451 218.658340,280.130371 
	C221.719650,287.451324 225.959061,294.279663 229.982880,301.858765 
	C232.116455,300.586212 233.903976,299.529846 235.682144,298.457947 
	C248.088684,290.979431 260.441132,283.409546 272.910278,276.036987 
	C293.600067,263.803894 313.761932,267.457184 333.611511,278.342682 
	C334.049042,278.582642 334.456146,278.877625 334.883026,279.137726 
	C350.173279,288.453766 350.786407,289.695068 346.314819,306.723541 
	C343.697327,316.691467 341.142700,326.719543 337.706573,336.418243 
	C332.988251,349.736145 325.695007,352.950043 312.335022,348.113373 
	C305.461639,345.625061 298.923065,342.227051 292.114563,339.540710 
	C283.700653,336.220856 275.188416,335.917145 266.940277,340.145203 
	C257.907166,344.775604 249.011734,349.675415 239.961029,354.270172 
	C236.822540,355.863525 237.231033,358.444855 237.231186,361.083221 
	C237.235260,432.080261 237.234650,503.077301 237.234070,574.074341 
	C237.233963,587.149536 236.583145,588.007324 223.362686,589.245239 
	C203.432129,591.111572 183.809509,589.157776 164.452652,584.113647 
	C160.254471,583.019714 158.683884,580.863403 158.689651,576.343384 
	C158.815216,477.847656 158.820908,379.351654 158.692719,280.855957 
	C158.685394,275.231720 160.800400,271.738556 166.010101,270.612885 
	C171.503693,269.425842 177.153961,268.963837 183.205627,268.171021 
z"/>
<path fill="#FEFEFF" opacity="1.000000" stroke="none" 
	d="
M1724.550049,430.343811 
	C1720.001953,394.250916 1719.790283,358.547607 1724.089478,322.860107 
	C1726.135986,305.872894 1733.983154,298.821747 1751.726196,297.147552 
	C1766.281860,295.774139 1769.552734,297.493591 1772.312134,311.894348 
	C1774.712158,324.419128 1776.489868,337.264984 1776.592896,349.984741 
	C1776.788086,374.092682 1775.636353,398.213440 1774.907227,422.324738 
	C1774.807495,425.620605 1774.078247,428.926910 1773.370850,432.169556 
	C1770.666626,444.565521 1765.948242,448.978027 1753.286377,450.917816 
	C1748.687012,451.622437 1744.031494,451.952789 1739.421875,452.598785 
	C1734.840088,453.240875 1731.289062,451.535370 1729.702393,447.378448 
	C1727.643433,441.984711 1726.310547,436.313721 1724.550049,430.343811 
z"/>
<path fill="#FCFCFC" opacity="1.000000" stroke="none" 
	d="
M903.234192,445.895996 
	C895.223145,438.921021 894.140930,429.574677 893.310547,420.279480 
	C892.004333,405.658447 899.010681,394.578369 915.129944,387.608276 
	C924.481323,383.564606 934.561829,381.206818 944.794983,377.936798 
	C944.794983,387.085846 945.418457,394.912109 944.641296,402.596741 
	C943.608826,412.806213 942.457642,423.188385 939.607910,432.987518 
	C934.949951,449.004486 918.084534,454.690430 903.234192,445.895996 
z"/>
<path fill="#F9F9F9" opacity="1.000000" stroke="none" 
	d="
M925.584595,612.906982 
	C926.075256,617.669800 926.828796,622.410156 925.931824,626.814392 
	C925.349976,629.671875 922.855225,632.760681 920.349304,634.481079 
	C914.423462,638.549377 907.558167,638.840820 900.722656,637.000854 
	C895.043823,635.472290 892.919128,632.268250 892.812378,625.937561 
	C892.697815,619.145813 894.569092,615.674011 900.403076,614.225952 
	C904.849304,613.122437 909.572205,613.024109 914.188171,612.749573 
	C917.828430,612.532959 921.493225,612.729126 925.584595,612.906982 
z"/>
<path fill="#F9F9F9" opacity="1.000000" stroke="none" 
	d="
M605.464172,636.895874 
	C598.897095,633.658081 597.072083,630.004089 598.067078,622.496826 
	C598.796448,616.993713 602.616089,614.246704 607.543762,613.714233 
	C615.424133,612.862549 623.385254,612.757263 631.773071,612.312012 
	C631.773071,617.213623 632.027954,621.349182 631.708862,625.439941 
	C631.305420,630.611389 628.141113,634.578979 623.406799,635.642273 
	C617.737854,636.915527 611.717407,636.623535 605.464172,636.895874 
z"/>
</svg>