<svg version="1.1" id="Layer_1" xmlns="http://www.w3.org/2000/svg" xmlns:xlink="http://www.w3.org/1999/xlink" x="0px" y="0px"
	 width="100%" viewBox="0 0 1678 748" enable-background="new 0 0 1678 748" xml:space="preserve">
<path fill="#FFFFFF" opacity="0.000000" stroke="none" 
	d="
M1266.000000,749.000000 
	C844.000000,749.000000 422.500000,749.000000 1.000000,749.000000 
	C1.000000,499.666656 1.000000,250.333328 1.000000,1.000000 
	C560.333313,1.000000 1119.666626,1.000000 1679.000000,1.000000 
	C1679.000000,250.333328 1679.000000,499.666656 1679.000000,749.000000 
	C1541.500000,749.000000 1404.000000,749.000000 1266.000000,749.000000 
M1368.927002,514.644409 
	C1371.275146,515.478333 1373.587036,516.437683 1375.976807,517.127380 
	C1407.906860,526.342224 1440.079102,526.423096 1472.197021,518.659546 
	C1489.541138,514.467102 1504.715942,506.052917 1515.981201,491.633026 
	C1524.672852,480.507324 1529.457275,467.593140 1532.914307,454.152924 
	C1540.786133,423.548096 1541.583740,392.286774 1541.198975,360.926331 
	C1540.887939,335.571014 1539.448364,310.321869 1532.991455,285.672241 
	C1528.547974,268.709442 1521.647217,252.976746 1507.943359,241.128006 
	C1495.731323,230.569244 1480.944580,226.363724 1465.469727,224.085419 
	C1457.002563,222.838837 1448.436523,222.263077 1440.253174,221.419662 
	C1439.683105,222.727036 1439.441162,223.024887 1439.438599,223.324799 
	C1439.361938,232.153381 1439.451660,240.985931 1439.216797,249.809952 
	C1438.916748,261.091766 1429.858643,269.941223 1418.626099,269.979431 
	C1397.631348,270.050903 1376.636353,269.992065 1355.641357,270.004822 
	C1349.042236,270.008850 1343.616821,267.384796 1339.558350,262.322571 
	C1337.477539,259.727112 1336.049927,256.608063 1334.215088,253.538483 
	C1333.168335,255.170578 1332.120117,256.664764 1331.213257,258.240387 
	C1319.709229,278.229004 1316.202393,300.383148 1314.062378,322.829132 
	C1311.464966,350.071198 1311.207642,377.375031 1313.022461,404.682556 
	C1314.349487,424.648865 1317.037476,444.393555 1323.133667,463.552917 
	C1330.647583,487.167664 1344.593262,505.034729 1368.927002,514.644409 
M342.069519,393.714142 
	C340.288483,400.259857 337.614075,406.708862 336.892944,413.369354 
	C334.673370,433.868988 336.242279,454.326874 340.376587,474.464813 
	C343.781372,491.049377 351.891418,504.746490 367.334747,513.308472 
	C376.196136,518.221375 385.907440,519.120850 395.595490,520.613464 
	C417.258301,523.951172 437.360657,520.864685 455.053772,507.039215 
	C459.878326,503.269257 464.664246,499.449799 469.651489,495.508026 
	C472.357849,500.725494 475.553986,505.522003 477.395111,510.791901 
	C479.559998,516.988647 483.986694,519.592712 489.701141,519.895203 
	C502.121155,520.552612 514.579834,520.975708 527.009399,520.752014 
	C533.526917,520.634705 535.651978,517.471619 535.707336,510.442841 
	C536.083679,462.632599 536.725464,414.821503 536.644043,367.011749 
	C536.598999,340.537781 535.104431,314.101349 528.046997,288.317596 
	C519.880249,258.480865 502.228363,238.062988 471.136322,231.315536 
	C448.858917,226.480988 426.278168,225.464890 403.576324,227.529373 
	C385.824341,229.143707 369.004669,233.716827 353.451843,242.769150 
	C348.185638,245.834244 346.222534,249.934647 346.036743,255.745514 
	C345.577942,270.095001 351.041321,282.699738 357.189178,295.113739 
	C358.782532,298.331055 361.526276,299.493347 365.130310,298.060059 
	C371.604309,295.485321 378.159851,293.112518 384.605835,290.471161 
	C400.830994,283.822449 417.622375,281.590149 434.973267,283.992249 
	C443.822449,285.217377 451.544861,288.680542 454.744873,297.777008 
	C459.612549,311.614044 459.881012,326.072083 460.072266,340.485840 
	C435.129761,346.989166 410.698975,353.316376 386.292572,359.736206 
	C367.097717,364.785187 351.908051,375.190521 342.069519,393.714142 
M735.960144,474.579071 
	C743.222656,489.326508 750.256958,504.194305 757.918457,518.731445 
	C759.692810,522.098083 763.175903,525.203613 766.623840,526.924744 
	C775.719299,531.464966 785.796448,530.569031 795.579041,530.327454 
	C801.354980,530.184753 807.128540,529.135620 812.857422,528.210876 
	C816.187561,527.673340 817.415161,525.465332 816.864868,522.002625 
	C815.611206,514.113586 814.483093,506.201508 813.476624,498.276825 
	C811.549011,483.098297 808.316406,467.921112 808.139404,452.714081 
	C807.493530,397.226166 807.884155,341.726227 807.884155,286.230804 
	C807.884155,284.304443 807.884094,282.378052 807.884094,280.170349 
	C825.677795,280.170349 842.816895,280.089264 859.954163,280.225525 
	C864.421753,280.261017 867.515625,278.505554 868.732666,274.381073 
	C871.963135,263.432678 872.005920,252.347092 868.845337,241.386826 
	C867.634155,237.186600 864.632202,235.007935 859.840210,235.091751 
	C847.844849,235.301559 835.843445,235.160950 823.844421,235.160904 
	C818.718506,235.160889 813.592651,235.160919 808.516479,235.160919 
	C808.261597,234.210953 808.112183,233.756775 808.018799,233.291336 
	C804.032654,213.410736 800.395142,193.451401 795.922852,173.680878 
	C793.726074,163.969818 791.570740,163.049088 781.883423,164.144577 
	C772.130981,165.247452 764.560852,168.971497 760.072449,178.835190 
	C751.960632,196.661957 742.768616,213.995346 734.181091,231.609512 
	C732.882507,234.273117 731.331055,235.563065 728.348999,236.120789 
	C715.436890,238.535721 702.612610,241.423203 689.693481,243.796524 
	C685.084290,244.643265 682.182129,247.159149 681.527161,251.345383 
	C680.402527,258.533386 679.873718,265.831726 679.438049,273.104340 
	C679.153503,277.854156 682.017090,280.013336 686.602234,280.045227 
	C694.433350,280.099701 702.264465,280.144775 710.095703,280.166321 
	C717.376465,280.186371 724.657288,280.170593 732.250732,280.170593 
	C732.250732,282.555298 732.250732,284.369965 732.250732,286.184662 
	C732.250732,344.013214 732.293030,401.841888 732.178040,459.670197 
	C732.167786,464.815063 732.769714,469.566956 735.960144,474.579071 
M85.045326,498.498016 
	C85.045326,493.333313 85.045326,488.168640 85.045326,483.003937 
	C85.045326,425.857971 85.078255,368.711975 84.964058,311.566223 
	C84.957161,308.113525 85.904648,306.158203 89.043289,304.622620 
	C94.703545,301.853455 100.221970,298.765442 105.651962,295.560394 
	C117.546158,288.539825 129.424286,288.465942 141.757065,294.571960 
	C147.375534,297.353638 153.379257,299.492737 159.396255,301.295898 
	C165.425217,303.102692 170.293732,301.132599 173.649597,295.893311 
	C175.506104,292.994904 177.065063,289.758270 178.026352,286.460785 
	C181.417725,274.827179 184.611923,263.131195 187.551392,251.376495 
	C187.961914,249.734848 187.128525,246.847626 185.851974,245.876709 
	C179.546463,241.080841 173.361481,235.743729 166.276062,232.434326 
	C150.655228,225.138275 134.623154,223.906036 118.944656,233.039612 
	C114.354958,235.713364 109.525078,237.983139 104.993935,240.747345 
	C96.092209,246.177811 87.322784,251.825150 78.280418,257.520203 
	C74.641975,250.593536 71.318794,243.703247 67.437195,237.143402 
	C65.787582,234.355576 63.401291,231.065521 60.606907,230.052078 
	C46.929665,225.091751 32.873829,225.499588 18.901361,228.994186 
	C14.760367,230.029861 12.863831,232.875748 12.868605,237.487473 
	C12.962609,328.287781 12.960423,419.088257 12.860260,509.888550 
	C12.856145,513.618958 14.253105,515.482788 17.639889,516.198547 
	C22.997549,517.330994 28.326998,519.060059 33.737896,519.387268 
	C47.814686,520.238525 61.929443,520.802246 76.028725,520.795471 
	C82.912880,520.792114 84.995216,517.815308 85.039917,510.992462 
	C85.065025,507.160675 85.045013,503.328613 85.045326,498.498016 
M1135.141113,300.500000 
	C1135.129150,285.505219 1135.253296,270.508759 1135.065308,255.516190 
	C1134.892090,241.715179 1122.717041,229.249619 1108.974731,228.880798 
	C1098.488281,228.599350 1087.987427,228.784943 1077.494141,228.889740 
	C1075.538574,228.909271 1073.513184,229.300507 1071.649048,229.912750 
	C1059.823120,233.796768 1051.923706,244.600754 1051.918701,257.057617 
	C1051.887817,335.197083 1051.902344,413.336517 1051.904053,491.475983 
	C1051.904175,492.475464 1051.911987,493.475952 1051.955933,494.474243 
	C1052.514526,507.173096 1065.561646,519.876892 1078.299561,519.992920 
	C1088.461792,520.085510 1098.634277,520.250549 1108.783813,519.879761 
	C1112.291504,519.751709 1116.045532,518.684143 1119.166748,517.051147 
	C1129.986938,511.389893 1135.241577,502.423615 1135.210327,489.934235 
	C1135.053345,427.123169 1135.140015,364.311462 1135.141113,300.500000 
M1115.036743,156.850861 
	C1128.667969,154.906601 1135.316284,146.786804 1135.545044,132.779922 
	C1201.410156,149.063431 1266.845581,165.240677 1332.149414,181.385406 
	C1333.117676,179.309998 1333.781738,177.886429 1334.755859,175.798309 
	C1334.755859,183.449890 1335.089355,190.301208 1334.683350,197.108429 
	C1333.939087,209.589310 1344.739868,218.612244 1354.908813,218.821854 
	C1369.230835,219.117096 1383.578613,219.299332 1397.886963,218.765869 
	C1409.896973,218.318085 1418.009644,209.047592 1418.066406,197.056396 
	C1418.094116,191.224579 1418.360840,185.373566 1417.976318,179.567215 
	C1417.718628,175.674271 1419.230347,173.660355 1422.387207,171.638718 
	C1478.471924,135.722702 1534.477051,99.682457 1590.502563,63.674103 
	C1592.140503,62.621288 1593.814331,61.624119 1595.563965,60.543800 
	C1600.244629,65.859680 1605.406128,69.850113 1612.364258,69.936737 
	C1627.025024,70.119232 1641.693115,70.182625 1656.351807,69.925865 
	C1666.890747,69.741264 1675.929077,60.270367 1676.030762,49.803425 
	C1676.118042,40.806480 1676.143433,31.806536 1676.014526,22.810518 
	C1675.862061,12.167659 1666.808472,3.052633 1656.200439,2.961316 
	C1641.704956,2.836534 1627.207031,2.848288 1612.711304,2.956494 
	C1601.828979,3.037727 1593.123535,11.634434 1592.765381,22.566669 
	C1592.585449,28.059744 1592.395142,33.585896 1592.794434,39.054394 
	C1593.139160,43.778389 1591.516357,46.545662 1587.460571,49.124741 
	C1551.915771,71.727570 1516.522217,94.568321 1481.084473,117.339584 
	C1458.958740,131.556976 1436.834106,145.776138 1414.766113,159.957886 
	C1405.763184,152.630753 1404.231934,151.764038 1397.573120,151.721130 
	C1383.410400,151.629883 1369.246460,151.649170 1355.083618,151.710739 
	C1346.579712,151.747711 1340.311890,155.825211 1336.869995,163.412277 
	C1335.092529,167.330582 1333.052368,167.303284 1329.542725,166.430298 
	C1267.098755,150.898102 1204.642578,135.414597 1142.133057,120.148972 
	C1136.991333,118.893311 1134.821289,117.257118 1134.996582,111.477470 
	C1135.395996,98.307098 1127.078369,89.789848 1113.874512,89.464272 
	C1100.385986,89.131676 1086.882568,89.333214 1073.386230,89.404602 
	C1060.859741,89.470863 1050.869873,99.273895 1051.787598,111.718376 
	C1052.337524,119.176056 1052.361938,126.743866 1051.786865,134.197693 
	C1050.712891,148.118683 1062.928467,157.246872 1074.638916,157.007355 
	C1087.796997,156.738251 1100.964355,156.923630 1115.036743,156.850861 
M58.299702,704.912598 
	C62.371700,700.543152 66.443703,696.173706 70.291046,692.045349 
	C74.558472,705.313110 77.590706,708.609741 98.479507,706.443665 
	C98.479507,702.365845 98.479507,698.270813 98.479507,693.584351 
	C93.922363,693.584351 89.537743,693.584351 84.888008,693.584351 
	C84.888008,691.348450 84.888405,689.701599 84.887947,688.054749 
	C84.883438,671.724182 85.030121,655.391724 84.833023,639.063477 
	C84.622063,621.586670 74.650772,609.881409 57.365902,606.981018 
	C52.000690,606.080688 46.369358,605.681580 40.979145,606.228577 
	C27.500725,607.596375 16.106661,612.872925 9.157995,625.789124 
	C12.648529,628.387634 15.944088,630.841003 19.145395,633.224243 
	C21.493340,630.580322 23.395937,628.020386 25.708094,625.908936 
	C34.290291,618.071411 51.230106,616.501404 60.792450,622.492126 
	C68.457413,627.294067 71.805641,639.161377 68.568352,650.472717 
	C63.472099,650.472717 58.305820,650.277405 53.160015,650.518616 
	C45.520645,650.876892 37.801365,650.969604 30.285143,652.204407 
	C16.313248,654.499695 7.833235,662.775085 6.148729,674.600098 
	C4.216749,688.162354 9.816290,700.050598 21.494305,705.374390 
	C33.409027,710.805908 45.614075,711.046509 58.299702,704.912598 
M394.782867,651.182251 
	C392.978973,651.490173 391.166260,651.753845 389.372620,652.112976 
	C374.319946,655.126709 365.755768,664.175720 365.119659,677.712708 
	C364.437897,692.221008 372.036804,704.002869 385.946960,707.252258 
	C393.332947,708.977478 401.430908,708.728088 409.073975,707.989075 
	C417.357758,707.188171 423.117218,701.683960 427.089142,694.445129 
	C427.720306,693.294739 428.398163,692.169922 429.425415,690.390808 
	C432.910675,705.473206 438.833435,708.862122 457.682495,706.321411 
	C457.682495,702.211670 457.682495,698.116577 457.682495,693.524231 
	C453.064514,693.524231 448.668243,693.524231 444.032623,693.524231 
	C444.032623,691.372131 444.033386,689.722351 444.032532,688.072632 
	C444.023895,671.421692 444.128815,654.769592 443.972443,638.120056 
	C443.830994,623.059387 435.497131,612.117737 421.066864,607.953979 
	C409.882751,604.726929 398.691925,605.034485 387.740906,609.057007 
	C379.372131,612.130920 372.729706,617.338379 368.486755,625.858093 
	C371.878052,628.375244 375.151154,630.804688 378.756439,633.480713 
	C385.625610,621.806274 396.085327,618.054626 408.630554,619.074463 
	C416.682373,619.728943 424.128418,622.442017 426.739044,630.747559 
	C428.658020,636.852722 428.619873,643.572998 429.592468,651.090698 
	C417.277039,651.090698 406.472504,651.090698 394.782867,651.182251 
M766.806641,680.632019 
	C757.174011,656.447693 747.541443,632.263367 738.046143,608.423828 
	C732.613403,608.423828 727.735779,608.423828 722.410828,608.423828 
	C723.219543,610.545227 723.821716,612.237976 724.504028,613.897827 
	C733.905884,636.768982 743.333679,659.629578 752.720520,682.506958 
	C755.804565,690.023376 761.151428,697.579041 761.155701,705.119141 
	C761.159912,712.658875 755.777527,720.202209 752.751221,727.741882 
	C752.565857,728.203674 752.231506,728.627808 752.142334,729.102478 
	C751.636841,731.792908 749.926880,732.294678 747.427002,732.233215 
	C740.997192,732.075134 734.560913,732.180359 728.247803,732.180359 
	C728.247803,736.897339 728.247803,740.964722 728.247803,745.239258 
	C733.050781,745.239258 737.538391,745.275024 742.025208,745.232727 
	C756.898621,745.092468 762.519409,741.314331 768.153748,727.509949 
	C783.455811,690.018555 798.722107,652.512512 813.991821,615.007935 
	C814.849304,612.901794 815.610291,610.756348 816.620178,608.090942 
	C812.688904,608.090942 809.377563,608.350403 806.125916,608.021057 
	C802.573242,607.661133 800.979492,609.013428 799.693054,612.327881 
	C792.548218,630.737000 785.131775,649.040771 777.805176,667.379333 
	C775.189758,673.925781 772.565552,680.468811 769.648743,687.754211 
	C768.533081,685.033325 767.781311,683.200134 766.806641,680.632019 
M1453.548462,620.131287 
	C1443.430420,637.272949 1450.361084,654.715576 1469.550781,659.990906 
	C1474.500366,661.351624 1479.634644,662.048706 1484.693481,663.000916 
	C1492.035400,664.382812 1499.462646,665.406128 1506.706909,667.180969 
	C1511.915527,668.457031 1515.388794,672.059875 1515.895752,677.737061 
	C1516.424438,683.659607 1514.561890,688.650818 1509.319092,691.825623 
	C1507.078125,693.182617 1504.565308,694.359314 1502.022827,694.906372 
	C1485.478027,698.466675 1470.283203,696.042480 1457.366333,684.243103 
	C1456.186401,683.165161 1454.970459,682.126770 1453.747803,681.049500 
	C1450.220459,684.168274 1447.022583,686.995789 1443.674561,689.955933 
	C1459.349731,706.980469 1478.762695,711.589478 1500.295654,708.296143 
	C1506.978516,707.274109 1513.781738,704.495361 1519.608154,700.989075 
	C1529.317749,695.146057 1532.069214,685.344055 1530.849365,674.530029 
	C1529.720215,664.519348 1523.252319,658.530090 1514.327637,655.074036 
	C1510.490845,653.588257 1506.360107,652.761414 1502.296265,651.982849 
	C1492.834961,650.170227 1483.187622,649.130493 1473.890015,646.719482 
	C1465.039673,644.424255 1461.204468,635.189697 1466.108276,627.900024 
	C1468.455688,624.410522 1472.968506,621.170715 1477.044434,620.264893 
	C1492.711182,616.783203 1507.508911,618.588745 1519.427124,631.007080 
	C1522.756836,627.838684 1525.934814,624.814697 1529.170288,621.735901 
	C1514.907349,607.577576 1497.996094,604.233704 1479.463135,606.543213 
	C1469.453613,607.790649 1460.396240,611.145996 1453.548462,620.131287 
M984.417603,693.977539 
	C972.158936,693.977539 959.900330,693.977539 947.768555,693.977539 
	C947.768555,669.405212 947.768555,645.469055 947.768555,621.006714 
	C962.763733,621.006714 977.487976,621.006714 992.145508,621.006714 
	C992.145508,616.406250 992.145508,612.345459 992.145508,607.804321 
	C977.053711,607.804321 962.332581,607.804321 947.232544,607.804321 
	C947.232544,596.036072 947.232544,584.754822 947.232544,573.530029 
	C942.244751,573.530029 937.657715,573.530029 932.805847,573.530029 
	C932.805847,581.997070 932.878479,590.152954 932.784790,598.306885 
	C932.695984,606.040100 930.649109,608.029541 922.914551,608.081238 
	C915.132080,608.133301 907.349060,608.092712 899.404541,608.092712 
	C899.404541,612.666260 899.404541,616.727844 899.404541,621.276917 
	C910.410950,621.276917 921.152100,621.276917 932.082642,621.276917 
	C932.082642,623.590027 932.082520,625.412903 932.082642,627.235779 
	C932.083618,646.233032 931.990845,665.230835 932.115479,684.227295 
	C932.215088,699.421143 939.868164,706.931702 954.949951,707.003296 
	C958.782654,707.021484 962.615540,707.006287 966.448303,707.006287 
	C975.038208,707.006287 983.628113,707.006287 992.190796,707.006287 
	C992.190796,702.318420 992.190796,698.249634 992.190796,693.977539 
	C989.704346,693.977539 987.545410,693.977539 984.417603,693.977539 
M248.190811,625.276978 
	C253.585892,630.796509 254.875626,637.787720 254.922104,645.058167 
	C255.043427,664.040955 254.974197,683.025024 254.980820,702.008545 
	C254.981384,703.603943 254.980896,705.199402 254.980896,706.784790 
	C260.329895,706.784790 265.094086,706.784790 269.896423,706.784790 
	C269.896423,683.134460 270.558533,659.676758 269.665588,636.278381 
	C269.061920,620.459839 258.674774,609.583984 243.915253,606.717773 
	C230.518921,604.116333 215.886398,606.742981 208.157013,623.250854 
	C208.080948,623.413330 207.652817,623.411011 206.929657,623.615479 
	C206.929657,618.455444 206.929657,613.411926 206.929657,608.344299 
	C201.720627,608.344299 196.973663,608.344299 192.099426,608.344299 
	C192.099426,641.291321 192.099426,673.991211 192.099426,706.645264 
	C197.244308,706.645264 202.124100,706.645264 207.055923,706.645264 
	C207.055923,684.140747 207.106445,661.993713 207.023621,639.847229 
	C207.000275,633.601135 209.009750,628.449646 214.019135,624.617004 
	C222.485779,618.139221 240.411499,617.444641 248.190811,625.276978 
M576.500000,707.002258 
	C594.907166,707.002258 613.314270,707.002258 631.576538,707.002258 
	C631.576538,702.274048 631.576538,698.210144 631.576538,693.717651 
	C620.012268,693.717651 608.779968,693.717651 597.172852,693.717651 
	C597.172852,650.726013 597.172852,608.172119 597.172852,565.425537 
	C580.548767,565.425537 564.317505,565.425537 547.894592,565.425537 
	C547.894592,569.735840 547.894592,573.794434 547.894592,578.357422 
	C559.375305,578.357422 570.601379,578.357422 581.814819,578.357422 
	C581.814819,617.104370 581.814819,655.343689 581.814819,694.021973 
	C570.378601,694.021973 559.137329,694.021973 547.871216,694.021973 
	C547.871216,698.532715 547.871216,702.599731 547.871216,707.002258 
	C557.239380,707.002258 566.369690,707.002258 576.500000,707.002258 
M1348.991577,688.063965 
	C1348.609375,687.025330 1348.531616,685.596375 1347.790405,685.017761 
	C1345.077148,682.900024 1342.142822,681.065491 1339.052490,678.961182 
	C1338.043701,680.567261 1337.211060,681.961670 1336.312622,683.312378 
	C1328.968750,694.352478 1316.686646,698.622803 1302.946899,694.928467 
	C1291.846924,691.943909 1284.520142,682.611145 1283.919922,669.718689 
	C1283.517944,661.084839 1283.514648,652.387268 1284.066772,643.765198 
	C1284.817505,632.044189 1292.552490,622.892090 1303.115234,620.137573 
	C1317.554321,616.372253 1327.118408,620.581726 1336.524536,634.939941 
	C1340.402466,632.854004 1344.290039,630.763000 1348.325073,628.592529 
	C1341.391968,613.861877 1330.132080,606.506348 1314.340332,605.964355 
	C1295.895020,605.331238 1281.302124,612.011902 1273.158447,629.158630 
	C1265.152954,646.014343 1264.978271,663.638733 1270.981323,681.147278 
	C1276.578613,697.472839 1288.403442,706.872131 1305.482300,708.855042 
	C1323.783813,710.979858 1339.103882,705.839355 1348.991577,688.063965 
M1110.500610,608.088501 
	C1104.362305,608.088501 1098.223999,608.088501 1091.824707,608.088501 
	C1091.824707,612.493774 1091.824707,616.589294 1091.824707,621.135315 
	C1103.526245,621.135315 1115.095703,621.135315 1126.820679,621.135315 
	C1126.820679,645.614685 1126.820679,669.645020 1126.820679,694.099854 
	C1114.999023,694.099854 1103.438354,694.099854 1091.836182,694.099854 
	C1091.836182,698.617004 1091.836182,702.703979 1091.836182,706.657410 
	C1119.993408,706.657410 1147.873657,706.657410 1175.556152,706.657410 
	C1175.556152,702.229614 1175.556152,698.166260 1175.556152,693.824341 
	C1164.415405,693.824341 1153.627808,693.824341 1142.386963,693.824341 
	C1142.386963,665.141296 1142.386963,636.745667 1142.386963,608.088501 
	C1131.785767,608.088501 1121.643066,608.088501 1110.500610,608.088501 
M1122.936646,578.030762 
	C1123.395630,582.160400 1125.734009,585.010132 1129.675659,585.687378 
	C1134.719971,586.554077 1140.133423,587.426697 1144.331909,583.277588 
	C1149.645630,578.026428 1147.175537,566.562439 1140.438599,564.414795 
	C1129.535645,560.939026 1122.768433,565.856567 1122.936646,578.030762 
z"/>
<path fill="#5271FF" opacity="1.000000" stroke="none" 
	d="
M1368.587158,514.463501 
	C1344.593262,505.034729 1330.647583,487.167664 1323.133667,463.552917 
	C1317.037476,444.393555 1314.349487,424.648865 1313.022461,404.682556 
	C1311.207642,377.375031 1311.464966,350.071198 1314.062378,322.829132 
	C1316.202393,300.383148 1319.709229,278.229004 1331.213257,258.240387 
	C1332.120117,256.664764 1333.168335,255.170578 1334.215088,253.538483 
	C1336.049927,256.608063 1337.477539,259.727112 1339.558350,262.322571 
	C1343.616821,267.384796 1349.042236,270.008850 1355.641357,270.004822 
	C1376.636353,269.992065 1397.631348,270.050903 1418.626099,269.979431 
	C1429.858643,269.941223 1438.916748,261.091766 1439.216797,249.809952 
	C1439.451660,240.985931 1439.361938,232.153381 1439.438599,223.324799 
	C1439.441162,223.024887 1439.683105,222.727036 1440.253174,221.419662 
	C1448.436523,222.263077 1457.002563,222.838837 1465.469727,224.085419 
	C1480.944580,226.363724 1495.731323,230.569244 1507.943359,241.128006 
	C1521.647217,252.976746 1528.547974,268.709442 1532.991455,285.672241 
	C1539.448364,310.321869 1540.887939,335.571014 1541.198975,360.926331 
	C1541.583740,392.286774 1540.786133,423.548096 1532.914307,454.152924 
	C1529.457275,467.593140 1524.672852,480.507324 1515.981201,491.633026 
	C1504.715942,506.052917 1489.541138,514.467102 1472.197021,518.659546 
	C1440.079102,526.423096 1407.906860,526.342224 1375.976807,517.127380 
	C1373.587036,516.437683 1371.275146,515.478333 1368.587158,514.463501 
M1391.123657,328.751160 
	C1389.441162,363.710175 1388.779297,398.678680 1393.169189,433.482819 
	C1394.340942,442.772186 1397.240112,451.911377 1400.048462,460.900116 
	C1401.612793,465.906647 1405.716675,468.487823 1411.407104,467.781799 
	C1417.346802,467.044830 1423.445435,467.120728 1429.246094,465.821136 
	C1446.339600,461.991364 1451.743164,457.865051 1454.348511,441.359772 
	C1455.643066,433.157928 1456.603760,424.875916 1457.180176,416.592926 
	C1459.786255,379.154297 1459.967529,341.728577 1454.820923,304.471649 
	C1453.833008,297.319489 1451.322876,290.315552 1448.942383,283.441528 
	C1447.547485,279.413635 1444.576538,275.773102 1439.749390,276.287018 
	C1430.702026,277.250153 1421.520264,278.097504 1412.773682,280.421021 
	C1403.743286,282.819916 1397.416992,289.181641 1395.640747,298.773163 
	C1393.858032,308.399628 1392.634277,318.129669 1391.123657,328.751160 
z"/>
<path fill="#010101" opacity="1.000000" stroke="none" 
	d="
M342.222656,393.368713 
	C351.908051,375.190521 367.097717,364.785187 386.292572,359.736206 
	C410.698975,353.316376 435.129761,346.989166 460.072266,340.485840 
	C459.881012,326.072083 459.612549,311.614044 454.744873,297.777008 
	C451.544861,288.680542 443.822449,285.217377 434.973267,283.992249 
	C417.622375,281.590149 400.830994,283.822449 384.605835,290.471161 
	C378.159851,293.112518 371.604309,295.485321 365.130310,298.060059 
	C361.526276,299.493347 358.782532,298.331055 357.189178,295.113739 
	C351.041321,282.699738 345.577942,270.095001 346.036743,255.745514 
	C346.222534,249.934647 348.185638,245.834244 353.451843,242.769150 
	C369.004669,233.716827 385.824341,229.143707 403.576324,227.529373 
	C426.278168,225.464890 448.858917,226.480988 471.136322,231.315536 
	C502.228363,238.062988 519.880249,258.480865 528.046997,288.317596 
	C535.104431,314.101349 536.598999,340.537781 536.644043,367.011749 
	C536.725464,414.821503 536.083679,462.632599 535.707336,510.442841 
	C535.651978,517.471619 533.526917,520.634705 527.009399,520.752014 
	C514.579834,520.975708 502.121155,520.552612 489.701141,519.895203 
	C483.986694,519.592712 479.559998,516.988647 477.395111,510.791901 
	C475.553986,505.522003 472.357849,500.725494 469.651489,495.508026 
	C464.664246,499.449799 459.878326,503.269257 455.053772,507.039215 
	C437.360657,520.864685 417.258301,523.951172 395.595490,520.613464 
	C385.907440,519.120850 376.196136,518.221375 367.334747,513.308472 
	C351.891418,504.746490 343.781372,491.049377 340.376587,474.464813 
	C336.242279,454.326874 334.673370,433.868988 336.892944,413.369354 
	C337.614075,406.708862 340.288483,400.259857 342.222656,393.368713 
M447.540466,459.028809 
	C449.691925,454.949707 452.903076,451.088257 453.794037,446.750244 
	C456.357361,434.269714 458.494110,421.649384 459.802185,408.981079 
	C460.711945,400.170258 459.977386,391.189667 459.977386,382.097626 
	C444.437225,384.301392 429.279297,388.136414 415.829926,397.100586 
	C403.245178,405.488525 396.001556,416.520233 398.280151,432.319580 
	C398.659607,434.950562 398.697998,437.643951 399.240875,440.235840 
	C401.202820,449.602570 403.326233,459.282104 412.925262,463.843781 
	C424.933960,469.550507 436.441467,467.186310 447.540466,459.028809 
z"/>
<path fill="#010101" opacity="1.000000" stroke="none" 
	d="
M735.805176,474.233856 
	C732.769714,469.566956 732.167786,464.815063 732.178040,459.670197 
	C732.293030,401.841888 732.250732,344.013214 732.250732,286.184662 
	C732.250732,284.369965 732.250732,282.555298 732.250732,280.170593 
	C724.657288,280.170593 717.376465,280.186371 710.095703,280.166321 
	C702.264465,280.144775 694.433350,280.099701 686.602234,280.045227 
	C682.017090,280.013336 679.153503,277.854156 679.438049,273.104340 
	C679.873718,265.831726 680.402527,258.533386 681.527161,251.345383 
	C682.182129,247.159149 685.084290,244.643265 689.693481,243.796524 
	C702.612610,241.423203 715.436890,238.535721 728.348999,236.120789 
	C731.331055,235.563065 732.882507,234.273117 734.181091,231.609512 
	C742.768616,213.995346 751.960632,196.661957 760.072449,178.835190 
	C764.560852,168.971497 772.130981,165.247452 781.883423,164.144577 
	C791.570740,163.049088 793.726074,163.969818 795.922852,173.680878 
	C800.395142,193.451401 804.032654,213.410736 808.018799,233.291336 
	C808.112183,233.756775 808.261597,234.210953 808.516479,235.160919 
	C813.592651,235.160919 818.718506,235.160889 823.844421,235.160904 
	C835.843445,235.160950 847.844849,235.301559 859.840210,235.091751 
	C864.632202,235.007935 867.634155,237.186600 868.845337,241.386826 
	C872.005920,252.347092 871.963135,263.432678 868.732666,274.381073 
	C867.515625,278.505554 864.421753,280.261017 859.954163,280.225525 
	C842.816895,280.089264 825.677795,280.170349 807.884094,280.170349 
	C807.884094,282.378052 807.884155,284.304443 807.884155,286.230804 
	C807.884155,341.726227 807.493530,397.226166 808.139404,452.714081 
	C808.316406,467.921112 811.549011,483.098297 813.476624,498.276825 
	C814.483093,506.201508 815.611206,514.113586 816.864868,522.002625 
	C817.415161,525.465332 816.187561,527.673340 812.857422,528.210876 
	C807.128540,529.135620 801.354980,530.184753 795.579041,530.327454 
	C785.796448,530.569031 775.719299,531.464966 766.623840,526.924744 
	C763.175903,525.203613 759.692810,522.098083 757.918457,518.731445 
	C750.256958,504.194305 743.222656,489.326508 735.805176,474.233856 
z"/>
<path fill="#000000" opacity="1.000000" stroke="none" 
	d="
M85.045326,498.997345 
	C85.045013,503.328613 85.065025,507.160675 85.039917,510.992462 
	C84.995216,517.815308 82.912880,520.792114 76.028725,520.795471 
	C61.929443,520.802246 47.814686,520.238525 33.737896,519.387268 
	C28.326998,519.060059 22.997549,517.330994 17.639889,516.198547 
	C14.253105,515.482788 12.856145,513.618958 12.860260,509.888550 
	C12.960423,419.088257 12.962609,328.287781 12.868605,237.487473 
	C12.863831,232.875748 14.760367,230.029861 18.901361,228.994186 
	C32.873829,225.499588 46.929665,225.091751 60.606907,230.052078 
	C63.401291,231.065521 65.787582,234.355576 67.437195,237.143402 
	C71.318794,243.703247 74.641975,250.593536 78.280418,257.520203 
	C87.322784,251.825150 96.092209,246.177811 104.993935,240.747345 
	C109.525078,237.983139 114.354958,235.713364 118.944656,233.039612 
	C134.623154,223.906036 150.655228,225.138275 166.276062,232.434326 
	C173.361481,235.743729 179.546463,241.080841 185.851974,245.876709 
	C187.128525,246.847626 187.961914,249.734848 187.551392,251.376495 
	C184.611923,263.131195 181.417725,274.827179 178.026352,286.460785 
	C177.065063,289.758270 175.506104,292.994904 173.649597,295.893311 
	C170.293732,301.132599 165.425217,303.102692 159.396255,301.295898 
	C153.379257,299.492737 147.375534,297.353638 141.757065,294.571960 
	C129.424286,288.465942 117.546158,288.539825 105.651962,295.560394 
	C100.221970,298.765442 94.703545,301.853455 89.043289,304.622620 
	C85.904648,306.158203 84.957161,308.113525 84.964058,311.566223 
	C85.078255,368.711975 85.045326,425.857971 85.045326,483.003937 
	C85.045326,488.168640 85.045326,493.333313 85.045326,498.997345 
z"/>
<path fill="#5170FF" opacity="1.000000" stroke="none" 
	d="
M1135.141113,301.000000 
	C1135.140015,364.311462 1135.053345,427.123169 1135.210327,489.934235 
	C1135.241577,502.423615 1129.986938,511.389893 1119.166748,517.051147 
	C1116.045532,518.684143 1112.291504,519.751709 1108.783813,519.879761 
	C1098.634277,520.250549 1088.461792,520.085510 1078.299561,519.992920 
	C1065.561646,519.876892 1052.514526,507.173096 1051.955933,494.474243 
	C1051.911987,493.475952 1051.904175,492.475464 1051.904053,491.475983 
	C1051.902344,413.336517 1051.887817,335.197083 1051.918701,257.057617 
	C1051.923706,244.600754 1059.823120,233.796768 1071.649048,229.912750 
	C1073.513184,229.300507 1075.538574,228.909271 1077.494141,228.889740 
	C1087.987427,228.784943 1098.488281,228.599350 1108.974731,228.880798 
	C1122.717041,229.249619 1134.892090,241.715179 1135.065308,255.516190 
	C1135.253296,270.508759 1135.129150,285.505219 1135.141113,301.000000 
z"/>
<path fill="#5271FF" opacity="1.000000" stroke="none" 
	d="
M1114.582275,156.881073 
	C1100.964355,156.923630 1087.796997,156.738251 1074.638916,157.007355 
	C1062.928467,157.246872 1050.712891,148.118683 1051.786865,134.197693 
	C1052.361938,126.743866 1052.337524,119.176056 1051.787598,111.718376 
	C1050.869873,99.273895 1060.859741,89.470863 1073.386230,89.404602 
	C1086.882568,89.333214 1100.385986,89.131676 1113.874512,89.464272 
	C1127.078369,89.789848 1135.395996,98.307098 1134.996582,111.477470 
	C1134.821289,117.257118 1136.991333,118.893311 1142.133057,120.148972 
	C1204.642578,135.414597 1267.098755,150.898102 1329.542725,166.430298 
	C1333.052368,167.303284 1335.092529,167.330582 1336.869995,163.412277 
	C1340.311890,155.825211 1346.579712,151.747711 1355.083618,151.710739 
	C1369.246460,151.649170 1383.410400,151.629883 1397.573120,151.721130 
	C1404.231934,151.764038 1405.763184,152.630753 1414.766113,159.957886 
	C1436.834106,145.776138 1458.958740,131.556976 1481.084473,117.339584 
	C1516.522217,94.568321 1551.915771,71.727570 1587.460571,49.124741 
	C1591.516357,46.545662 1593.139160,43.778389 1592.794434,39.054394 
	C1592.395142,33.585896 1592.585449,28.059744 1592.765381,22.566669 
	C1593.123535,11.634434 1601.828979,3.037727 1612.711304,2.956494 
	C1627.207031,2.848288 1641.704956,2.836534 1656.200439,2.961316 
	C1666.808472,3.052633 1675.862061,12.167659 1676.014526,22.810518 
	C1676.143433,31.806536 1676.118042,40.806480 1676.030762,49.803425 
	C1675.929077,60.270367 1666.890747,69.741264 1656.351807,69.925865 
	C1641.693115,70.182625 1627.025024,70.119232 1612.364258,69.936737 
	C1605.406128,69.850113 1600.244629,65.859680 1595.563965,60.543800 
	C1593.814331,61.624119 1592.140503,62.621288 1590.502563,63.674103 
	C1534.477051,99.682457 1478.471924,135.722702 1422.387207,171.638718 
	C1419.230347,173.660355 1417.718628,175.674271 1417.976318,179.567215 
	C1418.360840,185.373566 1418.094116,191.224579 1418.066406,197.056396 
	C1418.009644,209.047592 1409.896973,218.318085 1397.886963,218.765869 
	C1383.578613,219.299332 1369.230835,219.117096 1354.908813,218.821854 
	C1344.739868,218.612244 1333.939087,209.589310 1334.683350,197.108429 
	C1335.089355,190.301208 1334.755859,183.449890 1334.755859,175.798309 
	C1333.781738,177.886429 1333.117676,179.309998 1332.149414,181.385406 
	C1266.845581,165.240677 1201.410156,149.063431 1135.545044,132.779922 
	C1135.316284,146.786804 1128.667969,154.906601 1114.582275,156.881073 
z"/>
<path fill="#060606" opacity="1.000000" stroke="none" 
	d="
M57.970161,705.075134 
	C45.614075,711.046509 33.409027,710.805908 21.494305,705.374390 
	C9.816290,700.050598 4.216749,688.162354 6.148729,674.600098 
	C7.833235,662.775085 16.313248,654.499695 30.285143,652.204407 
	C37.801365,650.969604 45.520645,650.876892 53.160015,650.518616 
	C58.305820,650.277405 63.472099,650.472717 68.568352,650.472717 
	C71.805641,639.161377 68.457413,627.294067 60.792450,622.492126 
	C51.230106,616.501404 34.290291,618.071411 25.708094,625.908936 
	C23.395937,628.020386 21.493340,630.580322 19.145395,633.224243 
	C15.944088,630.841003 12.648529,628.387634 9.157995,625.789124 
	C16.106661,612.872925 27.500725,607.596375 40.979145,606.228577 
	C46.369358,605.681580 52.000690,606.080688 57.365902,606.981018 
	C74.650772,609.881409 84.622063,621.586670 84.833023,639.063477 
	C85.030121,655.391724 84.883438,671.724182 84.887947,688.054749 
	C84.888405,689.701599 84.888008,691.348450 84.888008,693.584351 
	C89.537743,693.584351 93.922363,693.584351 98.479507,693.584351 
	C98.479507,698.270813 98.479507,702.365845 98.479507,706.443665 
	C77.590706,708.609741 74.558472,705.313110 70.291046,692.045349 
	C66.443703,696.173706 62.371700,700.543152 57.970161,705.075134 
M30.548328,664.788879 
	C22.182863,668.036194 21.469603,674.968872 22.052280,682.497314 
	C22.557358,689.023132 26.214039,693.388123 33.480953,695.219238 
	C43.199310,697.667969 52.868835,697.014099 61.226429,691.253296 
	C64.613914,688.918335 67.956734,684.746338 68.777702,680.871582 
	C70.040070,674.913635 69.109718,668.490967 69.109718,660.918762 
	C56.229950,662.104675 43.733856,663.255310 30.548328,664.788879 
z"/>
<path fill="#040404" opacity="1.000000" stroke="none" 
	d="
M395.225433,651.136475 
	C406.472504,651.090698 417.277039,651.090698 429.592468,651.090698 
	C428.619873,643.572998 428.658020,636.852722 426.739044,630.747559 
	C424.128418,622.442017 416.682373,619.728943 408.630554,619.074463 
	C396.085327,618.054626 385.625610,621.806274 378.756439,633.480713 
	C375.151154,630.804688 371.878052,628.375244 368.486755,625.858093 
	C372.729706,617.338379 379.372131,612.130920 387.740906,609.057007 
	C398.691925,605.034485 409.882751,604.726929 421.066864,607.953979 
	C435.497131,612.117737 443.830994,623.059387 443.972443,638.120056 
	C444.128815,654.769592 444.023895,671.421692 444.032532,688.072632 
	C444.033386,689.722351 444.032623,691.372131 444.032623,693.524231 
	C448.668243,693.524231 453.064514,693.524231 457.682495,693.524231 
	C457.682495,698.116577 457.682495,702.211670 457.682495,706.321411 
	C438.833435,708.862122 432.910675,705.473206 429.425415,690.390808 
	C428.398163,692.169922 427.720306,693.294739 427.089142,694.445129 
	C423.117218,701.683960 417.357758,707.188171 409.073975,707.989075 
	C401.430908,708.728088 393.332947,708.977478 385.946960,707.252258 
	C372.036804,704.002869 364.437897,692.221008 365.119659,677.712708 
	C365.755768,664.175720 374.319946,655.126709 389.372620,652.112976 
	C391.166260,651.753845 392.978973,651.490173 395.225433,651.136475 
M424.314423,661.999817 
	C418.826996,662.000122 413.325012,661.751404 407.856354,662.072021 
	C402.582825,662.381165 397.206238,662.740173 392.121216,664.040405 
	C384.136780,666.082031 381.162781,670.654053 381.156891,679.019714 
	C381.150543,688.065002 384.233063,692.899231 392.253906,695.084534 
	C402.108551,697.769409 411.704346,696.775269 420.580841,691.438110 
	C425.583740,688.430115 428.616699,684.015625 428.785187,678.018677 
	C428.906555,673.698608 428.627350,669.361694 428.879364,665.052856 
	C429.054749,662.054138 427.527435,661.765564 424.314423,661.999817 
z"/>
<path fill="#050505" opacity="1.000000" stroke="none" 
	d="
M766.918091,680.999451 
	C767.781311,683.200134 768.533081,685.033325 769.648743,687.754211 
	C772.565552,680.468811 775.189758,673.925781 777.805176,667.379333 
	C785.131775,649.040771 792.548218,630.737000 799.693054,612.327881 
	C800.979492,609.013428 802.573242,607.661133 806.125916,608.021057 
	C809.377563,608.350403 812.688904,608.090942 816.620178,608.090942 
	C815.610291,610.756348 814.849304,612.901794 813.991821,615.007935 
	C798.722107,652.512512 783.455811,690.018555 768.153748,727.509949 
	C762.519409,741.314331 756.898621,745.092468 742.025208,745.232727 
	C737.538391,745.275024 733.050781,745.239258 728.247803,745.239258 
	C728.247803,740.964722 728.247803,736.897339 728.247803,732.180359 
	C734.560913,732.180359 740.997192,732.075134 747.427002,732.233215 
	C749.926880,732.294678 751.636841,731.792908 752.142334,729.102478 
	C752.231506,728.627808 752.565857,728.203674 752.751221,727.741882 
	C755.777527,720.202209 761.159912,712.658875 761.155701,705.119141 
	C761.151428,697.579041 755.804565,690.023376 752.720520,682.506958 
	C743.333679,659.629578 733.905884,636.768982 724.504028,613.897827 
	C723.821716,612.237976 723.219543,610.545227 722.410828,608.423828 
	C727.735779,608.423828 732.613403,608.423828 738.046143,608.423828 
	C747.541443,632.263367 757.174011,656.447693 766.918091,680.999451 
z"/>
<path fill="#050505" opacity="1.000000" stroke="none" 
	d="
M1453.760010,619.836060 
	C1460.396240,611.145996 1469.453613,607.790649 1479.463135,606.543213 
	C1497.996094,604.233704 1514.907349,607.577576 1529.170288,621.735901 
	C1525.934814,624.814697 1522.756836,627.838684 1519.427124,631.007080 
	C1507.508911,618.588745 1492.711182,616.783203 1477.044434,620.264893 
	C1472.968506,621.170715 1468.455688,624.410522 1466.108276,627.900024 
	C1461.204468,635.189697 1465.039673,644.424255 1473.890015,646.719482 
	C1483.187622,649.130493 1492.834961,650.170227 1502.296265,651.982849 
	C1506.360107,652.761414 1510.490845,653.588257 1514.327637,655.074036 
	C1523.252319,658.530090 1529.720215,664.519348 1530.849365,674.530029 
	C1532.069214,685.344055 1529.317749,695.146057 1519.608154,700.989075 
	C1513.781738,704.495361 1506.978516,707.274109 1500.295654,708.296143 
	C1478.762695,711.589478 1459.349731,706.980469 1443.674561,689.955933 
	C1447.022583,686.995789 1450.220459,684.168274 1453.747803,681.049500 
	C1454.970459,682.126770 1456.186401,683.165161 1457.366333,684.243103 
	C1470.283203,696.042480 1485.478027,698.466675 1502.022827,694.906372 
	C1504.565308,694.359314 1507.078125,693.182617 1509.319092,691.825623 
	C1514.561890,688.650818 1516.424438,683.659607 1515.895752,677.737061 
	C1515.388794,672.059875 1511.915527,668.457031 1506.706909,667.180969 
	C1499.462646,665.406128 1492.035400,664.382812 1484.693481,663.000916 
	C1479.634644,662.048706 1474.500366,661.351624 1469.550781,659.990906 
	C1450.361084,654.715576 1443.430420,637.272949 1453.760010,619.836060 
z"/>
<path fill="#040404" opacity="1.000000" stroke="none" 
	d="
M984.902100,693.977539 
	C987.545410,693.977539 989.704346,693.977539 992.190796,693.977539 
	C992.190796,698.249634 992.190796,702.318420 992.190796,707.006287 
	C983.628113,707.006287 975.038208,707.006287 966.448303,707.006287 
	C962.615540,707.006287 958.782654,707.021484 954.949951,707.003296 
	C939.868164,706.931702 932.215088,699.421143 932.115479,684.227295 
	C931.990845,665.230835 932.083618,646.233032 932.082642,627.235779 
	C932.082520,625.412903 932.082642,623.590027 932.082642,621.276917 
	C921.152100,621.276917 910.410950,621.276917 899.404541,621.276917 
	C899.404541,616.727844 899.404541,612.666260 899.404541,608.092712 
	C907.349060,608.092712 915.132080,608.133301 922.914551,608.081238 
	C930.649109,608.029541 932.695984,606.040100 932.784790,598.306885 
	C932.878479,590.152954 932.805847,581.997070 932.805847,573.530029 
	C937.657715,573.530029 942.244751,573.530029 947.232544,573.530029 
	C947.232544,584.754822 947.232544,596.036072 947.232544,607.804321 
	C962.332581,607.804321 977.053711,607.804321 992.145508,607.804321 
	C992.145508,612.345459 992.145508,616.406250 992.145508,621.006714 
	C977.487976,621.006714 962.763733,621.006714 947.768555,621.006714 
	C947.768555,645.469055 947.768555,669.405212 947.768555,693.977539 
	C959.900330,693.977539 972.158936,693.977539 984.902100,693.977539 
z"/>
<path fill="#020202" opacity="1.000000" stroke="none" 
	d="
M247.921356,625.026367 
	C240.411499,617.444641 222.485779,618.139221 214.019135,624.617004 
	C209.009750,628.449646 207.000275,633.601135 207.023621,639.847229 
	C207.106445,661.993713 207.055923,684.140747 207.055923,706.645264 
	C202.124100,706.645264 197.244308,706.645264 192.099426,706.645264 
	C192.099426,673.991211 192.099426,641.291321 192.099426,608.344299 
	C196.973663,608.344299 201.720627,608.344299 206.929657,608.344299 
	C206.929657,613.411926 206.929657,618.455444 206.929657,623.615479 
	C207.652817,623.411011 208.080948,623.413330 208.157013,623.250854 
	C215.886398,606.742981 230.518921,604.116333 243.915253,606.717773 
	C258.674774,609.583984 269.061920,620.459839 269.665588,636.278381 
	C270.558533,659.676758 269.896423,683.134460 269.896423,706.784790 
	C265.094086,706.784790 260.329895,706.784790 254.980896,706.784790 
	C254.980896,705.199402 254.981384,703.603943 254.980820,702.008545 
	C254.974197,683.025024 255.043427,664.040955 254.922104,645.058167 
	C254.875626,637.787720 253.585892,630.796509 247.921356,625.026367 
z"/>
<path fill="#010101" opacity="1.000000" stroke="none" 
	d="
M576.000000,707.002258 
	C566.369690,707.002258 557.239380,707.002258 547.871216,707.002258 
	C547.871216,702.599731 547.871216,698.532715 547.871216,694.021973 
	C559.137329,694.021973 570.378601,694.021973 581.814819,694.021973 
	C581.814819,655.343689 581.814819,617.104370 581.814819,578.357422 
	C570.601379,578.357422 559.375305,578.357422 547.894592,578.357422 
	C547.894592,573.794434 547.894592,569.735840 547.894592,565.425537 
	C564.317505,565.425537 580.548767,565.425537 597.172852,565.425537 
	C597.172852,608.172119 597.172852,650.726013 597.172852,693.717651 
	C608.779968,693.717651 620.012268,693.717651 631.576538,693.717651 
	C631.576538,698.210144 631.576538,702.274048 631.576538,707.002258 
	C613.314270,707.002258 594.907166,707.002258 576.000000,707.002258 
z"/>
<path fill="#050505" opacity="1.000000" stroke="none" 
	d="
M1348.835938,688.420227 
	C1339.103882,705.839355 1323.783813,710.979858 1305.482300,708.855042 
	C1288.403442,706.872131 1276.578613,697.472839 1270.981323,681.147278 
	C1264.978271,663.638733 1265.152954,646.014343 1273.158447,629.158630 
	C1281.302124,612.011902 1295.895020,605.331238 1314.340332,605.964355 
	C1330.132080,606.506348 1341.391968,613.861877 1348.325073,628.592529 
	C1344.290039,630.763000 1340.402466,632.854004 1336.524536,634.939941 
	C1327.118408,620.581726 1317.554321,616.372253 1303.115234,620.137573 
	C1292.552490,622.892090 1284.817505,632.044189 1284.066772,643.765198 
	C1283.514648,652.387268 1283.517944,661.084839 1283.919922,669.718689 
	C1284.520142,682.611145 1291.846924,691.943909 1302.946899,694.928467 
	C1316.686646,698.622803 1328.968750,694.352478 1336.312622,683.312378 
	C1337.211060,681.961670 1338.043701,680.567261 1339.052490,678.961182 
	C1342.142822,681.065491 1345.077148,682.900024 1347.790405,685.017761 
	C1348.531616,685.596375 1348.609375,687.025330 1348.835938,688.420227 
z"/>
<path fill="#060606" opacity="1.000000" stroke="none" 
	d="
M1111.000488,608.088501 
	C1121.643066,608.088501 1131.785767,608.088501 1142.386963,608.088501 
	C1142.386963,636.745667 1142.386963,665.141296 1142.386963,693.824341 
	C1153.627808,693.824341 1164.415405,693.824341 1175.556152,693.824341 
	C1175.556152,698.166260 1175.556152,702.229614 1175.556152,706.657410 
	C1147.873657,706.657410 1119.993408,706.657410 1091.836182,706.657410 
	C1091.836182,702.703979 1091.836182,698.617004 1091.836182,694.099854 
	C1103.438354,694.099854 1114.999023,694.099854 1126.820679,694.099854 
	C1126.820679,669.645020 1126.820679,645.614685 1126.820679,621.135315 
	C1115.095703,621.135315 1103.526245,621.135315 1091.824707,621.135315 
	C1091.824707,616.589294 1091.824707,612.493774 1091.824707,608.088501 
	C1098.223999,608.088501 1104.362305,608.088501 1111.000488,608.088501 
z"/>
<path fill="#040404" opacity="1.000000" stroke="none" 
	d="
M1122.909668,577.601685 
	C1122.768433,565.856567 1129.535645,560.939026 1140.438599,564.414795 
	C1147.175537,566.562439 1149.645630,578.026428 1144.331909,583.277588 
	C1140.133423,587.426697 1134.719971,586.554077 1129.675659,585.687378 
	C1125.734009,585.010132 1123.395630,582.160400 1122.909668,577.601685 
z"/>
<path fill="#FEFEFF" opacity="1.000000" stroke="none" 
	d="
M1391.144531,328.282776 
	C1392.634277,318.129669 1393.858032,308.399628 1395.640747,298.773163 
	C1397.416992,289.181641 1403.743286,282.819916 1412.773682,280.421021 
	C1421.520264,278.097504 1430.702026,277.250153 1439.749390,276.287018 
	C1444.576538,275.773102 1447.547485,279.413635 1448.942383,283.441528 
	C1451.322876,290.315552 1453.833008,297.319489 1454.820923,304.471649 
	C1459.967529,341.728577 1459.786255,379.154297 1457.180176,416.592926 
	C1456.603760,424.875916 1455.643066,433.157928 1454.348511,441.359772 
	C1451.743164,457.865051 1446.339600,461.991364 1429.246094,465.821136 
	C1423.445435,467.120728 1417.346802,467.044830 1411.407104,467.781799 
	C1405.716675,468.487823 1401.612793,465.906647 1400.048462,460.900116 
	C1397.240112,451.911377 1394.340942,442.772186 1393.169189,433.482819 
	C1388.779297,398.678680 1389.441162,363.710175 1391.144531,328.282776 
z"/>
<path fill="#FDFDFD" opacity="1.000000" stroke="none" 
	d="
M447.287231,459.289917 
	C436.441467,467.186310 424.933960,469.550507 412.925262,463.843781 
	C403.326233,459.282104 401.202820,449.602570 399.240875,440.235840 
	C398.697998,437.643951 398.659607,434.950562 398.280151,432.319580 
	C396.001556,416.520233 403.245178,405.488525 415.829926,397.100586 
	C429.279297,388.136414 444.437225,384.301392 459.977386,382.097626 
	C459.977386,391.189667 460.711945,400.170258 459.802185,408.981079 
	C458.494110,421.649384 456.357361,434.269714 453.794037,446.750244 
	C452.903076,451.088257 449.691925,454.949707 447.287231,459.289917 
z"/>
<path fill="#FDFDFD" opacity="1.000000" stroke="none" 
	d="
M30.893044,664.597412 
	C43.733856,663.255310 56.229950,662.104675 69.109718,660.918762 
	C69.109718,668.490967 70.040070,674.913635 68.777702,680.871582 
	C67.956734,684.746338 64.613914,688.918335 61.226429,691.253296 
	C52.868835,697.014099 43.199310,697.667969 33.480953,695.219238 
	C26.214039,693.388123 22.557358,689.023132 22.052280,682.497314 
	C21.469603,674.968872 22.182863,668.036194 30.893044,664.597412 
z"/>
<path fill="#FCFCFC" opacity="1.000000" stroke="none" 
	d="
M424.792175,661.999878 
	C427.527435,661.765564 429.054749,662.054138 428.879364,665.052856 
	C428.627350,669.361694 428.906555,673.698608 428.785187,678.018677 
	C428.616699,684.015625 425.583740,688.430115 420.580841,691.438110 
	C411.704346,696.775269 402.108551,697.769409 392.253906,695.084534 
	C384.233063,692.899231 381.150543,688.065002 381.156891,679.019714 
	C381.162781,670.654053 384.136780,666.082031 392.121216,664.040405 
	C397.206238,662.740173 402.582825,662.381165 407.856354,662.072021 
	C413.325012,661.751404 418.826996,662.000122 424.792175,661.999878 
z"/>
</svg>